<?xml version="1.0" standalone="no"?>
<!DOCTYPE svg PUBLIC "-//W3C//DTD SVG 20010904//EN"
 "http://www.w3.org/TR/2001/REC-SVG-20010904/DTD/svg10.dtd">
<svg version="1.0" xmlns="http://www.w3.org/2000/svg"
 width="376.000000pt" height="376.000000pt" viewBox="0 0 376.000000 376.000000"
 preserveAspectRatio="xMidYMid meet">
<metadata>
Created by potrace 1.11, written by Peter Selinger 2001-2013
</metadata>
<g transform="translate(0.000000,376.000000) scale(0.100000,-0.100000)"
fill="#000000" stroke="none">
<path d="M1827 3733 c-1 0 -40 -4 -87 -7 -47 -4 -101 -9 -120 -12 -105 -14
-150 -23 -192 -37 -27 -8 -48 -13 -48 -12 0 2 -16 -3 -36 -11 -20 -8 -39 -13
-42 -10 -3 3 -10 2 -16 -3 -9 -7 -81 -34 -96 -36 -3 0 -45 -19 -93 -43 -49
-23 -90 -42 -93 -42 -3 0 -17 -8 -32 -18 -15 -10 -65 -44 -112 -75 -124 -82
-183 -131 -290 -239 -181 -184 -240 -263 -339 -454 -55 -107 -109 -237 -116
-279 -2 -11 -11 -45 -20 -75 -9 -30 -18 -66 -21 -80 -2 -14 -6 -34 -9 -46 -5
-21 -8 -42 -21 -139 -7 -55 -7 -422 0 -470 3 -16 7 -56 10 -88 3 -32 15 -88
26 -125 11 -37 21 -76 23 -87 2 -11 9 -33 15 -48 7 -16 12 -35 12 -42 0 -28
120 -282 166 -352 19 -28 34 -54 34 -57 0 -8 103 -140 112 -144 5 -2 8 -7 8
-12 0 -11 249 -259 291 -290 41 -30 175 -119 210 -139 42 -25 219 -111 228
-111 8 0 87 -30 141 -53 14 -6 30 -11 35 -11 43 -5 96 -19 101 -27 3 -5 9 -7
14 -4 5 3 28 1 52 -5 24 -5 79 -13 123 -16 106 -7 456 -7 475 0 8 3 22 4 30 3
8 -1 46 4 83 11 37 7 72 10 77 7 4 -3 10 -2 12 3 3 8 139 49 187 57 13 2 28 8
34 14 6 6 17 11 23 11 7 0 25 5 41 12 15 6 31 11 35 10 3 -1 12 5 18 13 7 8
19 15 26 15 13 0 53 19 64 30 3 3 19 12 35 19 41 20 228 143 237 156 5 6 8 6
8 0 0 -5 10 0 23 12 155 150 279 273 274 273 -4 0 1 8 11 19 41 44 72 86 72
97 0 7 3 14 8 16 10 4 62 85 62 97 0 5 3 11 8 13 22 10 108 193 156 332 39
113 74 264 82 351 7 69 7 506 1 525 -3 8 -5 22 -5 30 -1 46 -36 219 -55 263
-9 20 -13 37 -10 37 3 0 0 7 -7 15 -6 8 -9 19 -5 25 3 5 1 10 -4 10 -6 0 -11
8 -11 18 0 10 -3 22 -7 26 -4 3 -8 12 -9 19 -1 7 -12 33 -23 59 -12 26 -21 51
-21 54 1 4 -2 10 -7 13 -5 3 -21 31 -36 61 -15 30 -41 75 -57 100 -16 25 -37
58 -46 74 -9 16 -30 44 -47 63 -18 19 -36 42 -41 51 -5 10 -15 21 -23 25 -7 4
-13 12 -13 16 0 12 -189 201 -201 201 -5 0 -14 9 -21 20 -7 11 -18 20 -25 20
-7 0 -18 9 -25 20 -7 11 -17 20 -21 20 -5 0 -14 6 -21 13 -8 6 -24 19 -36 27
-12 8 -28 20 -34 25 -21 18 -50 35 -78 46 -16 6 -28 14 -28 18 0 4 -25 18 -55
31 -30 13 -55 28 -55 33 0 4 -4 6 -9 2 -5 -3 -16 1 -24 9 -8 8 -17 13 -20 10
-3 -3 -30 6 -61 20 -31 14 -63 26 -71 26 -8 0 -24 4 -37 9 -47 19 -64 24 -88
28 -14 2 -38 8 -54 13 -16 6 -40 10 -52 10 -13 0 -24 3 -24 8 0 4 -33 8 -72
10 -40 2 -77 6 -82 9 -5 4 -39 8 -75 9 -164 8 -203 9 -204 7z"/>
</g>
</svg>
