<?xml version="1.0" standalone="no"?>
<!DOCTYPE svg PUBLIC "-//W3C//DTD SVG 20010904//EN"
 "http://www.w3.org/TR/2001/REC-SVG-20010904/DTD/svg10.dtd">
<svg version="1.0" xmlns="http://www.w3.org/2000/svg"
 width="7200.000000pt" height="3580.000000pt" viewBox="0 0 7200.000000 3580.000000"
 preserveAspectRatio="xMidYMid meet">

<g transform="translate(0.000000,3580.000000) scale(0.100000,-0.100000)"
fill="#000000" stroke="none">
<path d="M0 29340 c0 -4300 3 -6460 10 -6460 6 0 10 5 10 11 0 6 13 28 30 49
17 21 30 40 30 43 0 15 79 90 106 102 64 26 72 27 84 6 9 -17 7 -24 -10 -38
-16 -14 -20 -30 -20 -75 0 -45 -3 -58 -15 -58 -11 0 -15 -11 -15 -40 0 -36 -2
-40 -25 -40 -25 0 -25 -1 -25 -78 l0 -79 40 2 40 2 0 -44 0 -43 -40 0 c-22 0
-40 -4 -40 -10 0 -5 18 -10 40 -10 22 0 40 5 40 10 0 6 18 10 39 10 l40 0 3
-52 3 -53 38 -3 c32 -3 37 -7 37 -28 0 -20 5 -24 29 -24 18 0 43 -13 72 -38
25 -21 57 -39 74 -41 17 -1 32 -7 33 -12 2 -5 9 -9 17 -9 7 0 18 -6 24 -14 37
-45 -212 -47 -324 -3 -75 30 -174 83 -189 101 -12 15 -122 96 -131 96 -3 0 -5
-5067 -5 -11260 l0 -11260 36000 0 36000 0 0 17900 0 17900 -609 0 -609 0 -7
-32 c-4 -18 -29 -123 -56 -233 -28 -110 -54 -222 -59 -250 -6 -27 -17 -72 -25
-100 -8 -27 -31 -122 -50 -210 -20 -88 -40 -173 -45 -190 -9 -31 -44 -176 -80
-330 -12 -49 -39 -162 -60 -250 -22 -88 -53 -216 -69 -285 -16 -69 -57 -237
-91 -375 -33 -137 -75 -308 -92 -380 -16 -71 -37 -155 -45 -185 -18 -68 -35
-138 -62 -260 -12 -52 -32 -138 -45 -190 -13 -52 -31 -124 -40 -160 -32 -136
-99 -413 -147 -610 -28 -113 -62 -254 -76 -315 -14 -60 -31 -132 -39 -160 -7
-27 -27 -111 -44 -185 -17 -74 -38 -157 -45 -185 -13 -46 -33 -126 -86 -355
-21 -91 -37 -157 -94 -395 -63 -262 -124 -515 -161 -670 -39 -161 -118 -490
-189 -780 -24 -99 -53 -218 -64 -265 -18 -78 -49 -208 -117 -490 -14 -58 -52
-215 -85 -350 -33 -135 -66 -274 -74 -310 -13 -56 -58 -243 -110 -455 -96
-391 -118 -486 -125 -520 -4 -22 -17 -76 -28 -120 -11 -44 -28 -111 -37 -150
-79 -344 -145 -556 -221 -708 -73 -147 -110 -200 -204 -296 -224 -227 -496
-341 -813 -341 -184 1 -469 48 -727 120 -19 5 -101 26 -182 45 -82 19 -214 51
-295 70 -82 19 -173 42 -203 50 -30 8 -161 39 -290 70 -129 30 -289 69 -355
85 -66 16 -232 56 -370 90 -137 33 -266 64 -285 70 -19 5 -48 11 -65 14 -16 2
-66 14 -110 25 -91 23 -369 91 -620 150 -93 23 -195 48 -225 56 -30 8 -107 26
-170 41 -63 14 -126 29 -140 34 -14 4 -68 18 -120 30 -52 12 -160 37 -240 57
-80 19 -152 36 -160 38 -17 3 -418 101 -470 115 -19 5 -46 11 -60 13 -14 2
-70 16 -125 30 -55 14 -143 35 -195 47 -52 12 -115 27 -140 35 -25 7 -79 21
-120 30 -41 9 -219 52 -395 95 -176 43 -381 92 -455 110 -74 17 -146 35 -160
40 -14 5 -68 18 -120 30 -186 42 -827 198 -866 210 -17 6 -45 10 -62 10 -18 0
-32 5 -32 10 0 6 -9 10 -20 10 -18 0 -89 15 -230 50 -19 4 -60 15 -90 23 -30
8 -91 23 -135 32 -44 9 -93 21 -110 26 -34 10 -536 134 -605 148 -25 5 -83 19
-130 30 -47 12 -123 30 -170 41 -94 22 -212 51 -340 83 -47 11 -112 20 -145
20 -38 0 -51 2 -35 6 22 6 23 8 7 14 -10 4 -29 7 -41 7 -12 0 -27 5 -33 11 -7
7 -13 8 -17 0 -4 -6 7 -14 26 -20 l33 -9 -32 -1 c-17 -1 -34 3 -37 8 -3 4 -30
11 -60 15 -31 3 -81 13 -113 21 -32 9 -87 22 -123 30 -189 42 -379 86 -410 94
-19 6 -96 24 -170 41 -74 17 -162 38 -195 46 -86 22 -122 31 -195 48 -89 21
-384 91 -505 121 -382 93 -572 139 -725 175 -96 23 -229 54 -295 70 -166 40
-408 98 -480 115 -33 8 -154 37 -270 65 -115 28 -266 64 -335 81 -69 16 -197
48 -285 69 -88 22 -221 53 -295 69 -74 17 -151 35 -170 41 -43 12 -347 85
-945 227 -60 14 -254 61 -430 103 -176 43 -363 88 -415 100 -52 11 -111 25
-130 30 -71 19 -568 139 -680 164 -63 15 -128 31 -145 36 -16 5 -100 25 -185
45 -188 44 -372 88 -670 161 -123 31 -263 64 -310 74 -47 10 -112 26 -145 34
-57 14 -453 110 -750 182 -77 18 -264 63 -415 99 -151 36 -383 93 -515 125
-231 57 -345 84 -485 116 -36 8 -81 19 -100 24 -33 9 -367 90 -660 160 -377
89 -527 125 -930 224 -124 30 -304 73 -400 96 -394 92 -1030 250 -1410 350
-19 5 -54 18 -77 30 -23 11 -47 20 -53 20 -17 0 -11 18 7 23 17 4 -4 8 -60 11
-10 1 -21 6 -25 11 -7 10 -54 34 -159 80 -35 15 -63 32 -63 36 0 5 -5 9 -10 9
-6 0 -50 29 -99 65 -205 151 -366 375 -421 588 -10 40 -26 95 -36 122 -15 42
-18 78 -15 220 1 94 6 199 11 235 10 72 76 396 84 408 3 4 25 98 50 208 25
109 73 313 106 452 33 139 69 292 80 340 12 48 38 161 60 252 56 234 133 556
171 718 11 48 26 114 34 147 8 33 39 164 70 290 73 303 172 718 219 920 14 61
29 120 32 133 l6 22 -2837 0 -2837 0 25 -43 c14 -23 40 -69 57 -102 18 -33 55
-99 81 -147 27 -48 49 -90 49 -93 0 -3 5 -11 10 -18 11 -12 132 -226 160 -282
8 -16 18 -32 21 -35 7 -6 56 -88 68 -115 5 -11 62 -112 126 -225 65 -113 131
-230 148 -260 17 -30 35 -62 42 -70 7 -8 25 -40 41 -70 16 -30 34 -61 41 -68
7 -7 24 -39 39 -72 15 -33 31 -60 35 -60 5 0 9 -6 9 -14 0 -7 16 -42 35 -77
75 -136 199 -412 236 -522 39 -119 52 -215 46 -327 -6 -104 -34 -233 -64 -300
-72 -161 -130 -245 -240 -350 -115 -110 -138 -126 -278 -200 -55 -29 -116 -63
-135 -75 -19 -12 -71 -41 -115 -65 -44 -23 -98 -53 -120 -65 -169 -96 -329
-185 -331 -185 -2 0 -55 -32 -118 -70 -64 -38 -117 -70 -120 -70 -2 0 -34 -19
-72 -41 -37 -23 -88 -53 -113 -67 -25 -14 -98 -54 -161 -90 -63 -36 -144 -81
-180 -100 -36 -19 -98 -55 -137 -79 -40 -23 -75 -43 -79 -43 -3 0 -18 -8 -32
-19 -15 -10 -66 -39 -114 -64 -70 -37 -358 -196 -503 -277 -17 -10 -64 -35
-105 -58 -41 -22 -190 -104 -330 -182 -140 -78 -282 -157 -315 -174 -110 -60
-384 -215 -425 -241 -22 -14 -42 -25 -45 -25 -3 0 -22 -11 -43 -23 -45 -29
-110 -65 -257 -142 -60 -32 -121 -66 -135 -75 -47 -33 -215 -132 -290 -173
-41 -22 -118 -65 -170 -95 -98 -57 -241 -137 -485 -272 -77 -43 -214 -119
-305 -170 -91 -51 -214 -119 -275 -152 -165 -90 -371 -206 -452 -255 -40 -24
-75 -43 -77 -43 -2 0 -38 -20 -78 -44 -41 -24 -84 -47 -96 -50 -12 -4 -22 -12
-22 -17 0 -5 -5 -9 -11 -9 -10 0 -188 -99 -289 -160 -25 -15 -85 -49 -135 -75
-49 -26 -94 -51 -100 -55 -11 -8 -46 -29 -168 -97 -43 -24 -96 -55 -117 -68
-22 -14 -42 -25 -46 -25 -4 0 -32 -15 -63 -34 -31 -19 -81 -48 -111 -64 -128
-69 -177 -96 -212 -118 -21 -13 -40 -24 -42 -24 -2 0 -59 -32 -127 -70 -67
-38 -124 -70 -127 -70 -2 0 -16 -8 -30 -19 -15 -10 -58 -35 -97 -55 -38 -21
-83 -45 -100 -55 -16 -10 -100 -56 -185 -103 -85 -47 -182 -102 -215 -121 -33
-19 -91 -52 -130 -72 -38 -21 -99 -55 -135 -75 -36 -21 -159 -91 -275 -155
-115 -65 -227 -129 -247 -142 -21 -12 -40 -23 -43 -23 -4 0 -33 -18 -65 -40
-32 -22 -62 -40 -65 -40 -4 0 -30 -15 -58 -33 -125 -81 -271 -157 -302 -157
-12 0 -57 11 -99 25 -120 39 -195 32 -339 -32 -34 -15 -63 -31 -65 -35 -2 -4
-7 -8 -11 -8 -5 0 -41 -19 -82 -41 -41 -23 -93 -52 -117 -66 -24 -13 -67 -36
-95 -52 -29 -16 -83 -45 -122 -66 -38 -20 -74 -40 -80 -44 -9 -7 -90 -52 -175
-97 -19 -11 -37 -21 -40 -24 -3 -3 -34 -21 -70 -39 -36 -19 -76 -42 -90 -51
-14 -9 -54 -32 -90 -51 -36 -18 -67 -36 -70 -39 -3 -3 -16 -11 -30 -17 -14 -7
-56 -30 -95 -53 -38 -22 -101 -56 -140 -76 -38 -20 -81 -44 -95 -54 -24 -17
-52 -33 -215 -120 -44 -24 -87 -48 -95 -55 -8 -6 -44 -26 -80 -45 -36 -18 -76
-41 -90 -50 -14 -9 -65 -38 -115 -64 -49 -27 -120 -66 -157 -87 -36 -22 -70
-39 -73 -39 -4 0 -19 -8 -33 -19 -15 -10 -56 -34 -92 -53 -73 -39 -151 -83
-195 -110 -16 -10 -37 -21 -45 -25 -8 -4 -58 -31 -110 -60 -52 -30 -102 -57
-110 -62 -64 -34 -137 -75 -145 -81 -12 -9 -91 -52 -189 -104 -37 -20 -80 -45
-93 -56 -14 -11 -30 -20 -35 -20 -4 0 -26 -11 -46 -24 -21 -13 -83 -48 -138
-76 -54 -29 -106 -58 -114 -65 -8 -6 -44 -26 -80 -45 -90 -46 -103 -53 -120
-66 -8 -6 -51 -30 -95 -54 -79 -42 -125 -70 -135 -80 -3 -3 -21 -14 -40 -24
-50 -29 -82 -60 -105 -103 -11 -21 -22 -40 -25 -43 -13 -11 -41 -101 -47 -148
-4 -41 -10 -53 -27 -58 -11 -3 -46 -21 -76 -39 -30 -18 -73 -43 -95 -56 -59
-33 -282 -157 -345 -192 -30 -17 -68 -39 -85 -49 -16 -10 -37 -21 -45 -25 -8
-4 -60 -32 -115 -63 -55 -32 -129 -73 -165 -92 -36 -20 -162 -91 -280 -158
-118 -67 -249 -141 -290 -163 -41 -22 -100 -54 -130 -71 -30 -17 -72 -40 -93
-51 -20 -11 -37 -23 -37 -27 0 -5 -5 -8 -11 -8 -6 0 -56 -25 -112 -56 -56 -31
-131 -72 -167 -92 -36 -19 -90 -49 -120 -67 -30 -17 -111 -63 -180 -101 -69
-37 -127 -71 -130 -74 -3 -3 -23 -14 -45 -25 -56 -28 -378 -205 -390 -215 -5
-4 -44 -26 -85 -48 -150 -80 -195 -106 -198 -114 -2 -4 -9 -8 -15 -8 -7 0 -66
-30 -132 -66 -217 -119 -304 -164 -320 -164 -9 0 -14 -4 -11 -9 3 -5 -6 -14
-22 -20 -15 -6 -45 -22 -67 -34 -117 -69 -142 -81 -161 -79 -12 1 -27 -5 -34
-13 -10 -12 -10 -15 1 -15 8 0 -6 -11 -31 -23 -25 -13 -71 -38 -104 -56 -32
-18 -61 -29 -64 -26 -4 3 0 10 8 15 10 7 11 10 3 10 -10 0 -13 31 -13 120 l0
120 40 0 40 0 0 80 0 80 40 0 40 0 0 40 0 40 40 0 40 0 0 80 0 80 40 0 40 0 0
40 c0 33 3 40 20 40 26 0 26 16 0 32 -11 7 -20 23 -20 36 0 19 4 22 23 17 l22
-7 -23 17 c-15 11 -22 24 -19 36 3 12 -2 20 -14 24 -10 4 -19 14 -19 24 0 10
-11 40 -25 67 -14 27 -25 54 -25 61 0 6 -4 13 -9 15 -5 2 -29 45 -55 95 -73
147 -57 187 37 91 27 -29 63 -70 78 -91 15 -20 29 -32 31 -26 2 6 22 -7 44
-30 33 -33 48 -41 77 -41 l37 0 0 80 0 80 55 0 55 0 0 40 c0 22 5 40 10 40 6
0 10 18 10 40 0 29 4 40 15 40 11 0 15 11 15 40 0 36 3 40 25 40 23 0 25 4 25
40 0 57 27 55 33 -2 l4 -43 1 43 c1 23 7 42 12 42 6 0 10 18 10 40 0 22 5 40
10 40 6 0 10 18 10 40 0 57 27 55 33 -2 l4 -43 1 43 c1 23 7 42 12 42 6 0 10
18 10 40 0 22 5 40 10 40 6 0 10 18 10 40 0 33 3 40 20 40 17 0 20 7 20 40 0
33 3 40 20 40 17 0 20 7 20 40 0 34 3 40 21 40 19 0 21 5 17 46 -3 42 0 50 30
80 19 19 38 34 43 34 5 0 9 18 9 40 0 33 3 40 20 40 17 0 20 7 20 40 0 33 3
40 20 40 17 0 20 7 20 40 0 33 3 40 20 40 17 0 20 7 20 40 0 33 3 40 20 40 17
0 20 7 20 40 0 22 5 40 10 40 6 0 10 18 10 40 0 38 2 40 30 40 28 0 30 2 30
40 0 22 5 40 10 40 6 0 10 16 10 35 0 32 24 75 41 75 4 0 10 -8 12 -17 3 -10
5 1 6 25 0 23 6 42 11 42 6 0 10 18 10 40 0 38 2 40 30 40 l30 0 0 80 c0 73 2
80 20 80 11 0 20 4 20 9 0 5 16 18 35 30 39 23 46 41 15 41 -11 0 -20 2 -20 4
0 8 72 76 81 76 5 0 9 16 9 36 0 29 8 44 35 71 21 20 35 44 35 58 0 13 11 36
24 51 46 52 56 64 56 73 0 5 6 12 13 14 9 4 9 7 -1 15 -10 7 -4 18 25 48 21
21 41 37 46 36 4 -1 7 14 7 34 0 29 8 44 37 73 29 28 37 44 41 83 3 32 9 48
18 48 23 0 54 38 54 66 0 16 11 35 30 51 19 16 29 31 25 42 -3 9 6 28 21 45
21 22 24 30 14 36 -10 6 -5 15 18 35 18 15 32 33 32 40 0 7 13 26 30 42 18 17
28 34 25 44 -4 11 4 25 20 37 16 13 25 30 25 49 0 17 8 33 20 41 11 7 20 21
20 31 0 10 9 30 20 44 11 14 20 30 20 37 0 6 14 23 30 37 20 17 29 31 25 43
-3 9 1 23 10 30 8 7 15 18 15 25 0 16 59 133 71 140 5 4 9 15 9 26 0 10 4 19
9 19 5 0 15 17 22 38 7 20 20 43 31 50 10 8 18 25 18 43 0 18 5 29 13 29 8 0
20 19 27 43 17 57 43 117 52 117 3 0 14 24 23 53 10 28 24 59 31 68 8 8 14 21
14 27 0 7 3 12 8 12 9 0 45 65 48 87 2 9 7 20 13 26 6 6 11 19 11 29 0 10 6
18 13 18 7 0 19 16 26 36 7 20 28 62 47 92 18 31 36 68 39 83 4 15 13 30 21
33 8 3 14 12 14 20 0 8 12 37 28 63 15 26 33 66 41 88 7 22 19 47 26 55 6 8
18 31 25 50 8 19 19 38 26 43 7 4 15 40 19 81 4 41 13 85 21 98 48 84 42 111
-45 201 -78 81 -115 104 -137 86 -15 -12 -21 -9 -36 21 -4 8 -138 100 -145
100 -4 0 -16 9 -27 19 -12 11 -64 41 -116 66 -52 26 -96 48 -98 49 -1 2 16 39
38 84 22 44 40 85 40 90 0 6 4 12 9 14 4 2 12 14 16 28 7 23 6 23 -19 -6 -14
-18 -26 -37 -26 -43 0 -10 -12 -15 -31 -13 -3 1 -4 -11 -2 -26 3 -24 3 -25 -6
-6 -15 33 -29 37 -42 12 -24 -46 -55 -69 -83 -62 -48 12 -48 11 40 199 63 135
124 299 124 328 -1 24 -50 -49 -50 -74 0 -49 -74 -224 -107 -250 -7 -6 -13
-18 -13 -25 0 -8 -5 -14 -11 -14 -5 0 -21 -25 -34 -55 -23 -52 -55 -75 -55
-39 0 8 -5 12 -10 9 -23 -14 -20 26 4 68 36 61 32 68 -11 19 -20 -23 -40 -42
-45 -42 -12 0 -10 28 6 58 7 15 16 41 20 57 5 22 -5 12 -39 -40 -24 -38 -48
-70 -52 -70 -21 0 -103 59 -103 73 0 10 9 32 21 51 26 43 12 58 -24 25 -16
-14 -30 -24 -33 -22 -2 3 5 26 17 52 11 26 17 51 13 54 -3 4 -9 1 -11 -6 -3
-7 -10 -18 -17 -25 -7 -6 -21 -27 -31 -44 -11 -18 -27 -33 -36 -33 -15 0 -107
56 -137 85 -11 9 -3 33 43 126 31 63 60 122 65 131 6 10 10 24 10 32 0 8 4 16
8 18 4 2 27 54 51 117 65 170 68 281 7 281 -10 0 -17 -13 -21 -37 -3 -21 -12
-67 -21 -102 -8 -35 -13 -66 -10 -69 4 -3 6 0 6 7 0 17 37 54 43 44 8 -13 -9
-92 -32 -151 -31 -78 -153 -327 -163 -330 -4 -2 -8 -10 -8 -18 0 -18 -14 -18
-29 0 -8 10 -9 16 -1 21 5 3 10 23 9 43 l0 37 -22 -42 c-24 -49 -55 -56 -94
-24 -30 25 -29 38 7 118 17 36 28 68 26 70 -2 3 -12 -13 -22 -34 -10 -21 -26
-47 -36 -57 -10 -11 -18 -26 -18 -33 0 -19 -24 -16 -43 5 -18 20 -22 48 -8 56
9 6 22 46 15 46 -3 0 -16 -12 -30 -27 -35 -37 -39 -24 -9 35 14 27 25 61 25
73 0 18 -10 8 -39 -41 -21 -36 -47 -74 -56 -84 -16 -17 -19 -17 -29 -4 -6 8
-26 23 -44 32 -18 9 -35 23 -38 31 -3 8 8 39 26 70 33 58 25 73 -17 33 -34
-31 -40 -14 -14 38 12 26 19 49 15 53 -4 3 -9 1 -11 -5 -5 -14 -94 -134 -99
-134 -2 0 -40 24 -84 52 -52 34 -80 59 -80 71 0 10 41 101 90 202 50 101 90
191 90 199 0 9 4 16 8 16 17 0 46 127 47 205 l0 80 -30 0 c-29 0 -30 -1 -38
-65 -4 -36 -14 -84 -22 -108 -20 -57 -19 -63 4 -26 34 55 44 53 37 -7 -6 -48
-47 -166 -66 -194 -4 -5 -29 -53 -56 -105 -27 -52 -51 -97 -55 -100 -3 -3 -14
-19 -23 -37 -20 -39 -36 -50 -47 -32 -9 15 -2 57 13 76 6 7 8 18 6 25 -3 7
-15 -6 -27 -29 -12 -24 -27 -43 -34 -43 -22 0 -57 31 -57 50 0 11 25 72 56
136 30 64 53 119 49 122 -3 3 -11 -9 -17 -26 -7 -18 -16 -32 -20 -32 -4 0 -8
-4 -8 -9 0 -14 -70 -132 -91 -155 -36 -38 -66 6 -34 48 25 33 19 48 -15 41
-35 -8 -37 1 -15 64 25 71 1 48 -64 -61 -13 -21 -26 -38 -29 -38 -20 1 -107
57 -110 71 -2 9 11 39 28 65 33 52 27 66 -14 38 -24 -15 -26 -15 -26 0 0 10 7
31 16 47 29 57 9 50 -38 -13 -26 -35 -53 -69 -58 -76 -9 -10 -21 -5 -58 20
-25 18 -56 42 -68 53 l-21 20 28 55 c34 68 144 299 171 360 28 63 58 184 58
236 l0 44 -32 -7 c-39 -7 -48 -18 -48 -56 0 -15 -9 -53 -20 -84 -26 -75 -26
-92 0 -68 56 50 29 -58 -55 -220 -67 -131 -127 -234 -136 -235 -3 0 -14 6 -24
14 -17 13 -17 15 8 48 15 19 27 39 27 43 0 5 10 28 21 52 12 24 19 46 17 49
-3 2 -13 -14 -23 -36 -10 -22 -22 -40 -27 -40 -4 0 -8 -7 -8 -15 0 -8 -13 -29
-29 -47 -29 -32 -31 -33 -58 -18 -15 9 -29 23 -31 32 -3 15 23 76 94 222 32
67 49 130 20 76 -7 -14 -29 -53 -49 -87 -21 -34 -37 -64 -37 -67 0 -3 -12 -18
-26 -33 -15 -15 -31 -40 -36 -55 -8 -24 -12 -25 -40 -17 -17 4 -32 10 -34 12
-7 6 20 77 29 77 9 0 5 -28 -9 -64 -3 -9 -2 -16 2 -16 5 0 20 24 33 53 54 114
51 107 36 107 -8 0 -20 -18 -26 -40 -13 -43 -36 -50 -30 -9 l3 24 -23 -20
c-13 -11 -27 -24 -31 -30 -4 -5 -9 -7 -13 -4 -3 3 6 31 20 63 29 66 30 73 10
56 -8 -7 -15 -19 -15 -26 0 -8 -4 -14 -9 -14 -5 0 -23 -22 -41 -50 -18 -27
-34 -50 -36 -50 -2 0 -26 14 -54 31 -55 33 -61 52 -31 90 10 13 29 42 41 64
l22 39 -47 -38 c-25 -21 -49 -35 -52 -32 -4 4 3 27 16 52 22 47 21 71 -2 42
-6 -9 -30 -39 -52 -68 -34 -43 -44 -50 -64 -45 -22 6 -76 38 -91 55 -3 3 -22
18 -43 34 -34 25 -37 30 -24 45 8 9 48 86 90 171 143 294 160 340 155 435 l-3
60 -36 3 -36 3 -2 -55 c0 -31 -9 -78 -20 -106 -21 -54 -18 -59 18 -33 l24 16
-5 -44 c-5 -47 -18 -79 -76 -194 -60 -120 -105 -200 -114 -203 -4 -2 -8 -9 -8
-17 0 -20 -29 -40 -41 -28 -7 7 -4 26 6 57 9 27 14 50 12 52 -5 5 -32 -28 -53
-62 -9 -16 -15 -17 -37 -7 -34 16 -34 26 2 97 16 31 32 71 36 89 6 31 5 30
-13 -8 -23 -48 -60 -88 -73 -80 -5 4 -13 -5 -19 -19 -11 -31 -13 -31 -48 -9
-15 9 -28 18 -30 18 -1 1 4 17 12 36 20 50 11 64 -25 38 -34 -24 -35 -24 -9
32 32 72 23 76 -26 11 -25 -34 -50 -62 -54 -62 -16 0 -93 45 -98 58 -2 7 7 35
22 61 14 27 26 52 26 55 0 4 -17 -5 -37 -18 -20 -14 -39 -24 -41 -21 -2 2 8
29 22 60 23 52 17 74 -8 30 -6 -10 -18 -25 -26 -34 -8 -9 -24 -28 -35 -43
l-20 -28 -71 43 -71 42 28 60 c15 33 28 68 28 78 1 9 5 17 9 17 5 0 15 18 22
40 7 22 17 40 22 40 4 0 8 8 8 18 0 10 4 22 8 28 5 5 16 29 25 54 9 25 22 59
28 75 7 17 22 57 34 90 16 43 29 64 51 75 16 9 111 61 212 116 101 54 203 110
228 124 25 14 86 47 137 73 51 27 94 52 97 55 3 4 41 25 85 48 152 78 256 133
283 151 15 10 63 36 107 58 44 21 82 43 83 47 2 4 7 8 11 8 4 0 82 41 172 92
193 108 325 180 394 218 28 15 83 46 123 68 41 23 76 42 78 42 2 0 21 11 42
24 20 13 64 38 97 56 33 18 80 44 105 58 60 34 196 109 295 162 44 23 121 67
171 96 49 29 99 57 110 61 10 4 75 39 144 78 69 40 188 107 265 149 77 42 154
86 170 96 17 10 36 19 43 19 7 1 18 6 25 11 13 12 131 80 237 137 36 20 79 43
95 53 17 10 62 34 100 55 131 70 200 108 210 115 9 7 73 43 125 71 8 5 59 33
113 64 54 30 101 55 104 55 4 0 14 6 22 14 9 7 59 36 111 64 52 27 124 66 158
86 35 20 68 36 73 36 5 0 9 3 9 8 0 4 17 15 38 25 20 9 60 30 87 47 28 16 66
37 85 48 19 10 58 31 85 46 28 15 54 32 60 37 5 5 17 9 27 9 10 0 18 3 18 8 0
4 35 25 78 47 42 22 79 43 82 46 3 3 39 23 80 45 41 21 77 41 80 44 6 6 45 28
195 110 33 18 65 36 70 40 6 4 39 23 75 42 157 85 186 100 195 108 6 4 39 23
75 42 65 36 260 143 335 186 22 12 52 27 68 34 15 7 27 16 27 20 0 4 5 8 12 8
6 0 47 21 92 47 45 26 99 57 121 68 22 12 58 32 80 45 22 13 63 35 90 50 28
15 82 46 122 69 40 22 75 41 78 41 3 0 24 12 47 26 63 40 129 74 144 74 8 0
14 4 14 9 0 4 56 39 125 77 69 38 149 83 178 99 l52 30 -77 3 c-71 3 -82 0
-135 -29 -32 -17 -76 -41 -98 -53 -22 -11 -42 -23 -45 -26 -5 -5 -12 -9 -110
-62 -36 -19 -148 -82 -250 -138 -264 -148 -342 -190 -352 -190 -4 0 -8 -4 -8
-10 0 -5 -4 -10 -9 -10 -5 0 -53 -25 -107 -56 -55 -31 -146 -82 -204 -114 -58
-31 -123 -67 -145 -80 -117 -67 -210 -118 -295 -165 -52 -28 -132 -73 -178
-99 -45 -25 -104 -58 -130 -72 -26 -15 -72 -40 -102 -58 -126 -71 -156 -87
-172 -93 -10 -3 -18 -9 -18 -14 0 -5 -5 -9 -11 -9 -10 0 -48 -20 -299 -162
-63 -35 -180 -100 -260 -143 -80 -43 -147 -82 -150 -85 -3 -3 -39 -23 -80 -44
-41 -22 -118 -64 -170 -94 -93 -54 -402 -226 -510 -285 -30 -16 -95 -52 -145
-80 -90 -50 -133 -74 -222 -123 -27 -14 -77 -43 -113 -64 -36 -21 -85 -49
-110 -62 -119 -64 -187 -103 -212 -120 -14 -10 -28 -18 -31 -18 -2 0 -37 -18
-78 -41 -41 -23 -96 -54 -124 -69 -27 -15 -66 -37 -85 -49 -19 -11 -45 -25
-58 -31 -13 -6 -74 -39 -135 -73 -62 -35 -159 -90 -217 -122 -58 -32 -121 -69
-141 -81 -19 -13 -38 -24 -42 -24 -3 0 -59 -30 -124 -66 -65 -37 -152 -85
-193 -107 -41 -22 -86 -48 -100 -57 -14 -9 -38 -23 -55 -32 -16 -8 -57 -29
-90 -47 -33 -19 -73 -41 -90 -50 -16 -9 -32 -19 -35 -22 -3 -3 -39 -24 -80
-46 -146 -78 -195 -107 -198 -115 -2 -4 -12 -8 -23 -8 -10 0 -19 -4 -19 -8 0
-4 -21 -18 -47 -31 -27 -12 -93 -49 -148 -80 -111 -64 -290 -164 -405 -225
-41 -21 -77 -42 -80 -45 -3 -3 -23 -15 -45 -27 -22 -12 -113 -62 -202 -112
-88 -50 -169 -92 -179 -94 -14 -2 -20 6 -26 40 -9 54 -14 62 -42 62 -35 0 -46
-20 -46 -82 0 -80 -12 -101 -81 -133 -32 -16 -61 -26 -64 -24 -2 3 3 28 12 57
9 28 14 55 10 59 -12 11 -36 -30 -35 -60 1 -15 -4 -33 -10 -39 -7 -7 -12 -20
-12 -30 0 -10 -17 -55 -39 -101 -21 -45 -48 -104 -60 -132 -25 -55 -46 -76
-67 -68 -20 8 -18 15 26 115 53 119 53 147 3 88 -21 -24 -46 -57 -56 -73 -17
-28 -17 -31 -2 -39 15 -9 13 -45 -4 -58 -4 -3 -12 -17 -18 -32 -13 -28 -36
-37 -48 -18 -4 6 0 21 9 34 8 13 12 33 9 45 -6 22 -18 27 -28 11 -3 -5 -10
-10 -15 -10 -5 0 -1 19 9 43 38 87 36 96 -11 44 -24 -26 -59 -56 -78 -66 -33
-17 -35 -17 -67 2 -32 19 -42 40 -24 52 18 10 39 63 31 76 -6 9 -12 9 -25 -4
-9 -10 -20 -17 -25 -17 -11 0 -3 22 30 88 12 24 19 46 17 49 -6 5 -78 -83
-104 -128 -16 -26 -53 -41 -53 -21 0 5 -16 16 -35 25 -19 9 -35 21 -35 26 0 5
28 26 62 46 35 20 92 54 128 75 36 22 70 40 76 40 6 0 42 33 81 73 163 168
224 218 293 238 52 14 74 29 44 29 -61 0 -27 22 331 216 105 57 195 108 202
113 7 6 14 11 17 11 4 0 74 39 281 155 28 15 82 45 120 65 39 21 126 70 194
109 68 39 126 71 128 71 2 0 54 29 116 64 62 34 144 80 182 101 39 21 82 46
97 57 14 10 29 18 33 18 4 0 82 42 174 94 194 109 342 191 426 237 33 17 72
40 87 51 14 10 29 18 32 18 3 0 59 30 123 66 65 36 183 102 263 146 80 45 170
95 200 113 30 18 147 84 260 146 113 62 248 137 300 167 52 30 138 79 190 107
185 102 215 119 220 124 3 3 21 14 40 23 40 20 155 83 185 102 20 13 66 38
200 112 39 20 92 50 118 66 26 15 50 28 53 28 2 0 21 11 42 23 20 13 57 35 82
49 342 190 416 231 425 238 6 4 42 24 80 45 147 80 180 98 190 105 6 4 39 23
75 43 68 37 159 88 283 158 39 23 106 60 147 82 152 82 194 112 228 161 44 66
45 145 2 226 -16 30 -48 94 -72 142 l-43 87 -1273 1 -1273 0 -57 -31 c-31 -18
-92 -52 -134 -75 -43 -24 -82 -44 -87 -44 -5 0 -16 -6 -24 -14 -8 -8 -54 -36
-103 -62 -49 -25 -107 -57 -129 -69 -130 -72 -162 -90 -185 -105 -14 -9 -70
-41 -125 -70 -55 -30 -118 -64 -140 -76 -22 -13 -76 -42 -120 -65 -44 -23 -84
-45 -90 -49 -5 -4 -46 -27 -90 -50 -44 -24 -87 -48 -95 -54 -8 -6 -24 -16 -35
-22 -35 -19 -138 -76 -200 -111 -33 -19 -76 -41 -95 -50 -19 -8 -42 -21 -50
-28 -8 -6 -49 -30 -90 -52 -114 -60 -261 -141 -402 -220 -243 -135 -291 -161
-475 -258 -34 -18 -76 -43 -92 -54 -16 -12 -35 -21 -42 -21 -7 0 -20 -6 -28
-13 -29 -24 -251 -147 -266 -147 -8 0 -15 -4 -15 -10 0 -5 -7 -10 -15 -10 -8
0 -15 -4 -15 -8 0 -5 -29 -22 -64 -38 -35 -16 -62 -32 -60 -36 3 -4 -2 -5 -10
-2 -9 3 -16 2 -16 -4 0 -6 -30 -25 -67 -43 -78 -37 -215 -118 -224 -132 -3 -5
-9 -8 -13 -7 -9 3 -117 -52 -134 -67 -7 -7 -19 -13 -27 -13 -7 0 -15 -4 -17
-8 -1 -5 -52 -34 -113 -66 -60 -32 -117 -64 -126 -72 -8 -8 -23 -14 -32 -14
-9 0 -17 -3 -17 -8 0 -8 -5 -11 -101 -59 -35 -17 -79 -43 -98 -57 -19 -14 -41
-26 -48 -26 -12 0 -66 -33 -83 -50 -3 -3 -25 -15 -50 -28 -25 -12 -90 -47
-145 -78 -55 -30 -108 -58 -117 -61 -10 -3 -18 -10 -18 -15 0 -5 -21 -18 -47
-30 -27 -11 -55 -26 -63 -33 -22 -19 -89 -55 -103 -55 -7 -1 -28 -14 -47 -30
-19 -17 -38 -30 -42 -30 -5 0 -27 -12 -50 -26 -22 -14 -74 -43 -114 -64 -40
-21 -70 -41 -66 -45 4 -4 0 -6 -8 -3 -8 3 -28 -6 -43 -18 -41 -34 -51 -31 -42
14 4 20 10 61 14 91 6 53 7 54 61 83 80 43 253 138 270 149 8 5 22 12 30 16 8
4 17 9 20 12 3 4 22 15 43 26 20 11 37 23 37 27 0 5 6 8 13 8 17 0 74 51 98
86 13 20 19 47 19 89 0 66 -16 102 -118 275 -100 168 -150 256 -193 340 -24
47 -46 87 -49 90 -3 3 -21 34 -39 70 -19 36 -43 81 -54 100 -11 19 -31 53 -43
75 -29 50 -62 111 -105 195 -19 35 -54 85 -79 110 -80 82 -182 85 -305 7 -69
-43 -143 -87 -147 -87 -3 0 -66 -34 -139 -76 -74 -42 -195 -108 -269 -147 -74
-39 -136 -74 -138 -79 -2 -4 -8 -8 -13 -8 -8 0 -153 -80 -354 -195 -22 -13
-50 -34 -62 -47 -18 -19 -30 -23 -62 -20 -27 3 -41 9 -44 22 -2 10 -16 25 -29
34 -21 14 -33 15 -75 6 -50 -11 -65 -19 -129 -73 -41 -35 -134 -156 -134 -176
0 -7 31 18 68 57 62 63 148 122 178 122 7 0 15 -11 18 -25 5 -21 -4 -36 -62
-95 -47 -49 -76 -70 -93 -70 -13 0 -48 -11 -78 -25 -30 -14 -56 -23 -59 -20
-3 3 -42 -31 -88 -75 -86 -85 -122 -102 -109 -52 3 15 13 34 21 43 8 8 14 21
14 27 0 14 89 122 150 182 117 115 245 200 302 200 13 0 30 5 38 10 13 8 13
10 0 10 -10 0 -9 4 5 14 22 14 110 63 193 108 30 15 66 37 82 48 15 11 30 20
33 20 3 0 38 20 79 45 40 25 83 49 95 55 12 5 36 28 53 51 46 64 43 128 -12
239 -24 47 -46 87 -49 90 -3 3 -21 33 -39 68 -18 34 -37 62 -41 62 -5 0 -9 5
-9 10 0 6 -38 77 -84 158 -46 81 -98 174 -116 207 -17 33 -47 86 -66 119 -19
32 -34 64 -34 72 0 8 -4 14 -8 14 -5 0 -14 10 -20 23 -6 12 -36 67 -67 122
-31 55 -61 112 -68 128 l-11 27 -211 0 c-163 0 -215 -3 -230 -14 -41 -28 -96
-56 -112 -56 -9 0 -13 -3 -10 -7 4 -3 -21 -20 -55 -36 -35 -17 -65 -33 -68
-37 -12 -15 -116 -67 -128 -62 -17 5 -72 -17 -72 -30 0 -5 10 -6 23 -3 l22 7
-23 -17 c-17 -13 -26 -14 -36 -5 -18 14 -66 2 -66 -16 0 -8 5 -14 10 -14 6 0
10 5 10 10 0 6 10 10 22 10 13 0 18 -4 13 -9 -19 -17 -128 -71 -134 -66 -3 4
1 10 9 15 11 7 3 10 -26 10 -23 0 -57 2 -75 5 -29 4 -30 3 -9 -4 14 -5 40 -9
58 -10 29 -1 32 -3 23 -20 -9 -15 -92 -71 -107 -71 -2 0 -4 24 -6 53 -3 48 -5
52 -27 49 -20 -2 -22 0 -11 13 16 19 6 19 -25 -1 -13 -9 -32 -14 -42 -11 -14
4 -13 5 5 6 12 0 22 4 22 9 0 7 47 32 62 32 4 0 8 -7 8 -16 0 -12 6 -15 23
-10 12 3 25 6 30 6 12 0 8 48 -5 53 -9 4 -9 6 1 6 8 1 22 8 32 17 9 8 27 16
40 18 77 10 101 19 96 36 -3 13 0 16 13 13 10 -3 31 3 46 12 l29 16 -30 -6
-30 -5 25 21 c14 12 26 16 28 10 6 -18 82 -14 82 4 0 8 -9 15 -21 15 -31 0
-14 17 49 47 l57 28 -894 3 c-492 1 -896 0 -899 -3 -6 -6 4 -27 47 -102 17
-29 26 -53 21 -53 -6 0 -10 -11 -10 -25 0 -35 -17 -32 -22 4 -3 21 -1 28 9 24
10 -4 9 2 -2 23 -8 16 -15 34 -15 40 0 7 -7 14 -14 17 -8 3 -18 21 -21 40 l-7
35 -231 1 -232 2 -51 -53 c-28 -29 -90 -100 -139 -158 -162 -192 -241 -250
-168 -122 62 108 193 251 276 300 15 9 27 20 27 24 0 4 -74 8 -165 8 -111 0
-165 -4 -165 -11 0 -6 -12 -41 -26 -77 -14 -37 -30 -80 -36 -95 -20 -52 -20
-19 0 40 11 32 24 77 29 100 l10 43 -209 0 -208 0 -36 -40 c-20 -22 -40 -40
-45 -40 -12 0 -11 37 1 61 11 19 -29 19 -3150 19 -1738 0 -3160 -4 -3160 -8 0
-4 6 -16 14 -27 7 -11 27 -46 45 -77 17 -32 45 -84 62 -115 18 -32 46 -80 63
-108 18 -27 47 -79 65 -115 19 -36 37 -67 40 -70 3 -3 19 -30 35 -60 16 -30
33 -60 38 -66 4 -6 20 -33 34 -60 37 -68 47 -85 65 -114 23 -37 92 -157 127
-220 73 -134 144 -260 179 -315 7 -11 22 -38 34 -60 23 -43 56 -99 137 -237
29 -48 52 -90 52 -94 0 -3 20 -40 45 -81 25 -40 45 -78 45 -83 0 -6 5 -10 10
-10 6 0 10 -4 10 -10 0 -5 14 -33 31 -62 18 -29 47 -82 67 -118 19 -36 54 -97
78 -136 24 -39 44 -76 44 -82 0 -7 3 -12 8 -12 4 0 12 -10 18 -23 18 -39 59
-112 65 -117 4 -3 17 -25 29 -50 12 -25 31 -56 40 -70 10 -14 32 -52 49 -85
39 -74 82 -150 131 -235 243 -421 288 -508 269 -521 -16 -10 -48 23 -81 85
-11 22 -37 65 -58 96 -22 30 -44 67 -50 80 -6 14 -23 45 -39 70 -16 25 -30 51
-30 58 -1 14 -21 17 -21 3 0 -5 25 -58 56 -117 31 -60 60 -120 65 -133 19 -48
-21 0 -47 57 -14 30 -37 73 -52 96 -15 23 -34 55 -42 71 -8 17 -18 32 -22 35
-4 3 -20 30 -36 60 -16 30 -43 79 -60 108 -18 29 -32 57 -32 62 0 6 -4 10 -9
10 -5 0 -12 8 -15 18 -4 10 -22 45 -42 78 -20 32 -54 95 -77 139 -23 44 -50
89 -59 99 -10 11 -18 24 -18 30 0 5 -22 47 -50 93 -27 46 -50 88 -50 93 0 6
-4 10 -9 10 -5 0 -11 8 -14 18 -3 9 -22 44 -41 77 -40 70 -95 170 -110 202 -6
13 -14 23 -18 23 -5 0 -8 5 -8 10 0 6 -18 40 -40 76 -22 36 -40 68 -40 70 0 2
-22 41 -50 88 -27 47 -50 87 -50 91 0 3 -21 40 -47 83 -27 42 -55 91 -63 107
-8 17 -21 36 -29 44 -7 8 -21 33 -31 56 -9 22 -34 66 -54 97 -20 31 -36 61
-36 67 0 5 -3 11 -7 13 -5 2 -23 32 -42 68 -19 36 -56 102 -83 148 -26 45 -48
87 -48 92 0 6 -4 10 -10 10 -5 0 -10 6 -10 13 0 6 -22 48 -48 92 -27 44 -62
105 -79 135 -36 65 -129 221 -140 235 -5 6 -17 28 -29 50 -24 46 -51 93 -105
187 -22 36 -39 71 -39 77 0 8 -614 11 -2120 11 l-2120 0 0 -6460z m11986 6415
c-14 -14 -16 -14 -16 -2 0 9 6 17 13 20 19 7 21 -1 3 -18z m14 -40 c0 -8 -2
-15 -4 -15 -2 0 -6 7 -10 15 -3 8 -1 15 4 15 6 0 10 -7 10 -15z m-220 -1 c0
-4 -22 -27 -49 -53 -26 -25 -71 -75 -98 -111 -147 -193 -174 -228 -206 -257
-20 -18 -38 -33 -41 -33 -39 0 92 223 179 305 21 20 94 75 99 75 6 0 24 14 75
57 26 22 41 28 41 17z m403 -167 c15 -30 27 -61 27 -70 0 -9 9 -21 20 -27 17
-9 29 -40 16 -40 -16 0 -36 14 -36 26 0 20 -19 18 -27 -3 -4 -11 1 -22 15 -31
22 -14 22 -14 -18 -53 -22 -22 -42 -39 -44 -39 -3 0 -11 14 -20 30 -10 21 -13
47 -9 85 5 46 3 55 -10 55 -9 0 -19 -11 -23 -26 l-6 -25 -19 31 c-19 31 -26
76 -10 66 4 -3 11 -20 15 -37 7 -37 20 -31 21 9 0 25 3 27 45 27 43 0 45 -1
43 -28 -2 -24 0 -25 13 -12 10 10 12 19 5 32 -23 43 -39 83 -32 83 4 0 19 -24
34 -53z m-48 23 c3 -5 -1 -10 -9 -10 -9 0 -16 5 -16 10 0 6 4 10 9 10 6 0 13
-4 16 -10z m-68 -16 c-3 -3 -12 -4 -19 -1 -8 3 -5 6 6 6 11 1 17 -2 13 -5z
m-312 -58 c-8 -44 -71 -215 -86 -230 -5 -6 -9 -18 -9 -27 0 -9 -9 -27 -21 -40
-18 -21 -20 -21 -14 -4 4 11 10 29 13 40 2 11 9 25 13 31 5 6 14 35 20 65 12
61 47 175 61 202 16 31 30 8 23 -37z m1670 44 c-3 -5 -13 -10 -21 -10 -8 0
-12 5 -9 10 3 6 13 10 21 10 8 0 12 -4 9 -10z m-2059 -151 c10 -60 -12 -48
-31 17 -19 67 -12 108 11 55 8 -19 17 -51 20 -72z m-973 58 c58 -26 66 -41 36
-60 -11 -7 -29 0 -64 22 -28 18 -50 36 -49 41 3 27 5 31 12 28 4 -2 33 -16 65
-31z m759 -9 c-10 -10 -15 -10 -22 2 -6 9 -5 17 3 22 18 11 33 -10 19 -24z
m2128 22 c0 -5 -12 -10 -27 -9 -25 0 -26 1 -8 9 27 12 35 12 35 0z m-80 -35
c0 -8 -7 -15 -16 -15 -14 0 -14 3 -4 15 7 8 14 15 16 15 2 0 4 -7 4 -15z m36
-10 c4 -8 17 -15 29 -15 28 0 43 -19 24 -31 -19 -12 -4 -22 21 -14 17 5 19 10
9 21 -9 11 -7 15 7 21 10 4 19 2 22 -5 2 -7 10 -12 18 -12 8 0 14 -4 14 -10 0
-5 -5 -10 -11 -10 -6 0 -23 -8 -37 -19 -15 -10 -44 -26 -66 -35 -33 -14 -37
-14 -32 -1 6 18 1 19 -24 5 -13 -7 -21 -7 -25 0 -3 5 -1 10 4 10 6 0 11 18 11
40 0 22 4 40 10 40 5 0 7 7 4 15 -4 8 -1 15 5 15 7 0 14 -7 17 -15z m-1316
-12 c0 -35 -120 -333 -134 -333 -4 0 57 186 96 293 20 55 38 75 38 40z m430
-23 c0 -5 -4 -10 -9 -10 -21 0 -110 -93 -216 -225 -107 -134 -188 -215 -202
-202 -11 12 8 57 52 121 42 62 57 81 117 147 33 36 124 109 136 109 6 0 12 4
14 8 4 12 80 61 96 61 6 1 12 -3 12 -9z m768 -33 c2 -17 9 -27 20 -27 16 -1
16 -2 0 -14 -26 -19 -22 -26 12 -19 48 9 35 -20 -32 -69 -44 -33 -52 -35 -38
-8 6 11 18 20 28 21 9 0 12 3 5 5 -17 7 -53 -14 -53 -31 0 -8 -4 -15 -10 -15
-5 0 -10 -5 -10 -11 0 -5 5 -7 10 -4 6 3 10 -1 10 -9 0 -8 -5 -18 -11 -22 -8
-4 -10 -35 -7 -90 4 -72 2 -84 -11 -84 -9 0 -28 -11 -43 -25 -33 -30 -34 -30
-41 -5 -3 11 -24 28 -49 39 -23 11 -37 20 -30 20 27 2 10 19 -25 25 -21 4 -54
12 -75 17 -35 9 -36 10 -31 52 9 84 12 90 38 83 14 -4 25 -2 25 4 0 5 -4 10
-10 10 -5 0 -10 5 -10 10 0 6 12 10 28 10 29 0 92 34 92 50 0 5 8 14 19 19 16
9 17 7 13 -14 -2 -15 0 -25 7 -25 6 0 10 6 9 13 -2 8 13 13 45 15 42 3 47 6
47 26 0 24 17 36 51 36 26 0 24 20 -2 27 -16 4 -17 8 -7 14 20 13 33 5 36 -24z
m-1820 -28 c36 -44 22 -53 -20 -13 -40 37 -54 74 -20 53 9 -6 27 -24 40 -40z
m1757 21 c-3 -5 -10 -10 -16 -10 -5 0 -9 5 -9 10 0 6 7 10 16 10 8 0 12 -4 9
-10z m-2495 -9 c0 -5 -7 -14 -15 -21 -13 -10 -15 -9 -15 9 0 12 6 21 15 21 8
0 15 -4 15 -9z m2457 -7 c-3 -3 -12 -4 -19 -1 -8 3 -5 6 6 6 11 1 17 -2 13 -5z
m-667 -82 c0 -7 -7 -21 -16 -30 -15 -15 -16 -13 -10 15 4 19 3 34 -3 38 -6 3
-11 -1 -11 -9 0 -9 -7 -16 -15 -16 -22 0 -18 15 8 33 20 14 23 14 35 -1 6 -9
12 -22 12 -30z m870 44 c0 -3 -4 -8 -10 -11 -5 -3 -10 -1 -10 4 0 6 5 11 10
11 6 0 10 -2 10 -4z m-741 -52 c-18 -20 -46 -49 -60 -65 -15 -15 -40 -45 -55
-66 -16 -21 -31 -40 -34 -43 -3 -3 -30 -39 -60 -80 -67 -92 -141 -180 -152
-180 -26 0 29 132 83 201 16 20 29 42 29 49 0 6 5 8 10 5 6 -4 10 6 11 22 0
15 3 22 6 15 4 -10 18 -2 47 27 105 103 260 204 175 115z m-173 -15 c3 -6 -3
-21 -15 -32 -16 -16 -23 -19 -33 -9 -9 9 -7 16 7 32 20 23 31 25 41 9z m-68
-32 c-3 -30 -1 -34 17 -30 11 2 14 1 8 -3 -7 -3 -13 -12 -13 -20 0 -27 -18
-14 -30 21 -9 27 -9 38 2 49 19 22 21 20 16 -17z m232 -161 c-21 -73 -52 -151
-88 -226 -32 -67 -31 -64 -36 -59 -7 7 9 66 39 144 15 39 33 95 42 125 8 30
21 66 30 79 25 40 33 5 13 -63z m104 73 c12 19 26 12 26 -14 0 -26 -15 -34
-24 -12 -3 8 -9 6 -20 -7 -17 -21 -19 -15 -9 22 4 16 8 20 13 12 5 -9 9 -9 14
-1z m-171 -39 c-3 -11 -12 -20 -20 -20 -10 0 -14 -7 -10 -20 6 -23 -11 -27
-19 -5 -4 9 4 25 20 40 33 30 36 31 29 5z m-1251 -97 c8 -10 8 -17 0 -25 -8
-8 -22 -4 -51 15 -22 15 -45 27 -50 27 -12 0 -23 29 -15 41 6 10 97 -36 116
-58z m1493 -9 c-3 -29 -11 -56 -16 -59 -5 -4 -9 -13 -9 -20 0 -25 -86 -211
-102 -221 -16 -10 -7 28 27 112 19 47 35 91 35 96 0 20 64 170 68 159 2 -7 1
-37 -3 -67z m-113 9 c-2 -7 -9 -13 -14 -13 -6 0 -7 7 -4 16 3 9 6 25 7 37 1
20 2 20 8 -3 4 -14 6 -31 3 -37z m53 47 c3 -5 1 -10 -4 -10 -6 0 -11 -9 -11
-20 0 -11 -4 -20 -9 -20 -5 0 -9 14 -9 30 1 29 20 41 33 20z m1622 -22 c15 -7
46 -31 68 -54 65 -67 79 -157 39 -236 -14 -27 -127 -98 -155 -98 -8 0 -27 24
-42 53 -15 28 -54 99 -86 157 -67 118 -70 103 29 158 59 33 103 39 147 20z
m-1847 -30 c0 -16 -3 -19 -11 -11 -6 6 -8 16 -5 22 11 17 16 13 16 -11z m-30
-15 c0 -16 -6 -23 -20 -23 -15 0 -20 7 -20 24 0 19 5 24 20 23 14 -1 20 -8 20
-24z m810 18 c0 -5 -10 -13 -22 -17 -28 -9 -146 -125 -186 -184 -16 -25 -39
-54 -49 -65 -10 -11 -30 -36 -43 -55 -40 -56 -62 -80 -111 -116 -56 -41 -63
-42 -54 -6 17 70 137 224 237 304 76 61 126 98 133 98 3 0 23 11 43 25 39 27
52 31 52 16z m-1860 -92 c0 -5 -7 -9 -15 -9 -15 0 -20 12 -9 23 8 8 24 -1 24
-14z m1848 -21 c19 -19 14 -44 -13 -56 -14 -6 -25 -16 -25 -21 0 -5 -11 -11
-25 -13 -26 -5 -34 5 -14 18 8 5 6 10 -5 16 -19 11 -21 28 -3 28 7 0 20 9 30
20 19 23 38 25 55 8z m90 -70 c-49 -53 -171 -208 -210 -268 -46 -70 -117 -150
-134 -150 -22 0 -17 24 22 102 59 120 64 129 102 163 34 30 55 48 136 116 33
28 97 69 108 69 3 0 -8 -15 -24 -32z m-8122 -115 c-6 -6 -56 73 -56 89 0 7 14
-9 31 -36 17 -26 28 -50 25 -53z m8118 -15 c-14 -85 -133 -368 -154 -368 -14
0 -13 8 11 70 11 30 36 101 55 157 39 118 55 155 69 165 19 14 24 8 19 -24z
m-8063 -70 c8 -15 8 -18 0 -14 -6 4 -16 16 -22 28 -8 15 -8 18 0 14 6 -4 16
-16 22 -28z m8127 -7 l20 -39 -23 -46 -23 -45 -17 25 c-20 32 -12 64 15 57 11
-3 20 0 20 6 0 6 -7 11 -16 11 -12 0 -15 6 -10 23 3 12 6 28 6 35 0 20 7 14
28 -27z m-1437 -17 c33 -19 59 -42 59 -50 0 -25 -30 -28 -60 -5 -16 11 -33 21
-38 21 -17 0 -44 39 -39 55 9 21 11 20 78 -21z m-5601 0 l25 -15 -25 7 c-14 3
-29 10 -34 15 -16 14 6 10 34 -7z m7123 -49 c-14 -66 -122 -302 -153 -330 -20
-18 -20 -18 -13 16 3 19 12 43 19 54 18 28 104 245 104 261 0 8 4 14 9 14 5 0
11 10 15 23 9 34 26 1 19 -38z m487 15 c0 -5 -7 -7 -15 -4 -9 4 -15 0 -15 -10
0 -9 -4 -16 -8 -16 -13 0 -125 -118 -172 -180 -23 -30 -62 -82 -87 -115 -39
-51 -161 -160 -170 -151 -13 12 58 137 121 215 56 69 228 218 299 258 26 15
47 17 47 3z m-1836 -79 c3 -5 -1 -14 -8 -20 -16 -13 -32 2 -21 19 8 12 22 13
29 1z m1928 -103 c-70 -73 -173 -201 -220 -273 -35 -53 -129 -155 -143 -155
-12 0 -11 7 7 48 50 114 89 183 122 218 85 90 276 239 291 228 2 -2 -24 -32
-57 -66z m-538 18 c9 -19 16 -39 16 -45 0 -6 4 -11 8 -11 8 0 32 -43 32 -58 0
-8 -38 -52 -62 -70 -15 -12 -16 -7 -12 58 3 62 -6 91 -19 58 -2 -7 -8 -1 -12
14 -4 16 -4 36 0 45 6 15 9 14 22 -10 8 -16 17 -26 20 -24 3 3 -2 16 -11 29
-9 12 -16 28 -16 35 0 24 18 13 34 -21z m527 -135 c-6 -10 -8 -20 -6 -23 8 -8
-29 -107 -83 -221 -80 -169 -126 -211 -62 -57 17 40 46 119 66 174 46 129 75
182 86 161 5 -8 5 -23 -1 -34z m-2203 6 c13 -15 -1 -42 -17 -33 -13 8 -15 46
-2 46 5 0 13 -6 19 -13z m2378 -119 c-8 -79 -135 -406 -158 -407 -14 -1 -8 47
10 91 11 24 35 90 55 148 36 107 87 230 95 230 3 0 2 -28 -2 -62z m-552 -18
c29 -44 33 -70 12 -70 -9 0 -12 -7 -9 -20 4 -14 0 -20 -10 -20 -8 0 -17 -6
-20 -12 -6 -19 -48 33 -43 54 2 9 0 18 -5 20 -7 3 36 88 45 88 2 0 15 -18 30
-40z m-974 -26 c0 -19 -20 -17 -49 5 -16 12 -22 24 -18 35 6 16 10 16 37 -4
16 -12 30 -28 30 -36z m60 -29 c0 -8 -7 -15 -15 -15 -16 0 -20 12 -8 23 11 12
23 8 23 -8z m2180 -46 c0 -5 -8 -9 -18 -9 -22 0 -94 -46 -142 -92 -38 -36 -95
-105 -150 -181 -105 -145 -178 -227 -202 -227 -8 0 23 93 47 141 25 46 90 135
113 151 16 11 53 43 172 149 29 25 161 89 173 82 4 -2 7 -8 7 -14z m-2054 -38
c-9 -14 -33 -14 -41 -1 -4 6 -1 18 6 26 11 13 14 13 27 0 8 -8 11 -19 8 -25z
m1524 -26 c0 -5 -82 -107 -121 -150 -38 -42 -78 -97 -85 -117 -6 -18 -16 -22
-41 -19 -7 1 -10 -5 -7 -12 3 -8 -2 -17 -12 -21 -24 -9 -30 1 -11 22 9 10 21
42 28 72 6 30 15 59 20 65 5 5 9 17 9 27 0 10 19 28 48 45 26 15 49 30 52 33
7 7 103 58 113 59 4 1 7 -1 7 -4z m-625 -39 c8 -7 17 -26 21 -40 l7 -27 -27
24 c-14 13 -26 32 -26 41 0 20 7 20 25 2z m1101 -3 c3 -10 13 -34 21 -54 12
-29 13 -44 4 -70 -6 -19 -17 -57 -26 -85 -9 -28 -22 -59 -29 -69 -13 -18 -15
-16 -36 25 -19 37 -21 49 -12 75 6 16 16 50 22 75 27 108 31 120 41 120 5 0
12 -8 15 -17z m1184 -26 c29 -14 40 -57 16 -57 -9 0 -16 4 -16 9 0 5 -13 14
-30 21 -56 23 -130 -23 -130 -82 0 -40 86 -197 115 -210 60 -27 140 24 140 89
0 42 18 54 35 23 36 -68 -76 -173 -165 -154 -30 7 -74 33 -75 45 0 4 -19 37
-41 75 -74 122 -61 200 41 246 25 11 83 9 110 -5z m-2310 -32 c0 -14 -4 -25
-10 -25 -11 0 -14 33 -3 43 11 11 13 8 13 -18z m1005 -135 c-23 -75 -33 -103
-72 -188 -18 -39 -33 -75 -33 -80 -1 -19 -36 -51 -48 -43 -10 6 -8 18 8 56 11
27 34 87 50 134 46 137 79 221 93 235 20 22 21 -49 2 -114z m-2170 81 c7 -12
-12 -24 -25 -16 -11 7 -4 25 10 25 5 0 11 -4 15 -9z m2345 -153 c-28 -100
-138 -348 -157 -355 -8 -3 -16 -4 -18 -1 -5 5 46 152 68 195 8 15 20 46 26 68
7 22 28 75 48 117 49 103 66 90 33 -24z m-1545 22 c10 -11 23 -20 30 -20 7 0
20 -9 30 -20 15 -17 16 -20 3 -20 -8 0 -26 8 -39 18 -13 9 -33 22 -44 28 -10
6 -21 16 -23 22 -6 19 23 14 43 -8z m1673 -109 c67 -119 67 -118 51 -134 -8
-7 -25 -28 -39 -46 -55 -71 -72 -78 -89 -33 -5 15 -24 51 -41 81 -18 31 -27
58 -22 65 4 6 21 51 37 99 34 101 27 104 103 -32z m386 111 c3 -5 -26 -37 -65
-71 -38 -35 -88 -88 -111 -120 -22 -31 -54 -70 -71 -88 l-29 -31 37 -63 38
-62 20 24 c11 13 24 31 31 39 13 17 84 82 170 155 33 28 64 55 70 61 20 19 75
48 81 42 3 -3 -27 -39 -68 -79 -66 -65 -139 -155 -254 -311 -52 -71 -89 -108
-106 -108 -22 0 -21 8 3 66 29 67 19 77 -20 22 -19 -27 -37 -48 -41 -48 -9 0
-59 88 -59 103 0 6 7 19 17 29 29 33 7 29 -47 -7 -29 -20 -55 -33 -58 -31 -11
12 56 126 112 191 88 100 100 112 219 208 107 86 121 95 131 79z m-1864 -132
c0 -5 -2 -10 -4 -10 -3 0 -8 5 -11 10 -3 6 -1 10 4 10 6 0 11 -4 11 -10z
m-255 -180 c3 -5 1 -10 -4 -10 -6 0 -11 -10 -11 -22 0 -20 -1 -21 -20 -3 -19
17 -19 19 -2 31 21 16 29 17 37 4z m2165 -8 c0 -20 -81 -237 -104 -279 -8 -16
-25 -50 -36 -76 -21 -47 -42 -57 -48 -24 -2 9 9 45 23 79 15 35 33 79 40 98
48 126 63 160 85 188 28 36 40 40 40 14z m-1187 -7 c-3 -9 -8 -14 -10 -11 -3
3 -2 9 2 15 9 16 15 13 8 -4z m1342 -158 c-35 -109 -145 -337 -162 -337 -20 0
-16 31 13 90 14 29 37 85 50 124 14 39 39 99 55 134 16 35 29 66 29 69 0 4 8
15 18 26 17 19 17 19 20 -3 2 -12 -8 -58 -23 -103z m-6405 74 c-5 -11 -49 -59
-97 -108 -113 -113 -147 -163 -151 -222 -10 -125 -5 -167 23 -220 16 -28 25
-54 22 -57 -10 -10 -75 35 -97 67 -14 19 -23 51 -27 96 -4 63 -2 73 27 127 35
65 34 64 187 222 106 110 134 133 113 95z m4890 -46 c19 -14 40 -25 47 -25 7
0 13 -7 13 -15 0 -8 -2 -15 -5 -15 -9 0 -115 69 -115 75 0 12 29 3 60 -20z
m2068 -21 c15 -15 13 -16 -22 -12 -35 4 -44 0 -90 -43 -48 -44 -72 -73 -217
-264 -33 -44 -70 -86 -81 -95 -11 -8 -28 -23 -36 -32 -9 -10 -22 -18 -28 -18
-7 0 -15 -6 -18 -12 -3 -7 -3 5 0 27 8 53 75 161 154 248 39 43 229 199 245
201 8 1 18 5 21 9 13 13 55 7 72 -9z m-890 -90 c1 -10 -13 -48 -32 -84 -20
-36 -36 -60 -37 -55 0 6 -4 -1 -8 -14 l-6 -23 -15 27 c-12 22 -12 29 -2 32 6
3 12 14 12 25 0 13 5 18 14 15 7 -3 13 0 13 6 -1 7 7 31 17 55 19 44 39 51 44
16z m-998 -4 c0 -5 -4 -10 -10 -10 -5 0 -10 5 -10 10 0 6 5 10 10 10 6 0 10
-4 10 -10z m2058 -2 c-2 -6 -17 -13 -33 -15 -36 -5 -111 -80 -193 -194 -34
-46 -65 -88 -69 -94 -16 -19 -53 -82 -53 -91 0 -4 9 2 20 14 11 12 20 28 20
37 0 8 5 15 10 15 16 0 12 -21 -15 -78 -13 -29 -23 -54 -22 -56 4 -8 -47 -56
-60 -56 -18 0 -17 4 13 51 37 60 21 60 -32 1 -50 -55 -64 -63 -64 -34 0 21 32
115 46 134 5 7 19 30 29 51 34 66 238 261 319 304 45 24 90 30 84 11z m-970
-163 c-3 -3 -9 2 -12 12 -6 14 -5 15 5 6 7 -7 10 -15 7 -18z m-1364 -11 c23
-9 20 -31 -5 -39 -25 -8 -44 7 -36 29 7 17 16 19 41 10z m2300 -21 c-27 -123
-64 -190 -107 -197 -10 -1 -22 -9 -27 -16 -5 -8 -12 -11 -15 -8 -4 4 8 50 27
103 31 86 38 99 74 120 50 31 56 31 48 -2z m-914 -11 c0 -15 -2 -15 -10 -2
-13 20 -13 33 0 25 6 -3 10 -14 10 -23z m764 -79 c-30 -88 -116 -268 -141
-295 -9 -10 -20 -15 -25 -10 -8 8 2 38 43 129 10 23 19 46 19 52 0 5 14 39 30
76 17 37 30 73 30 80 0 7 14 28 32 46 44 46 47 24 12 -78z m-7324 40 c0 -10 3
-36 6 -58 5 -38 4 -39 -10 -21 -18 22 -22 96 -6 96 6 0 10 -8 10 -17z m7514
-61 c-11 -80 -135 -379 -164 -397 -20 -12 -20 21 1 75 39 102 101 275 106 298
3 12 8 22 12 22 3 0 12 14 19 30 19 43 34 27 26 -28z m-7204 11 c0 -5 -9 -19
-20 -33 -11 -14 -20 -30 -20 -37 0 -27 -21 -66 -30 -57 -10 10 13 97 33 122
10 13 37 17 37 5z m7740 -26 c0 -7 -13 -20 -28 -29 -44 -26 -113 -105 -229
-261 -82 -112 -160 -197 -180 -197 -7 0 -13 -4 -13 -10 0 -5 -9 -14 -20 -20
-19 -10 -20 -9 -14 17 9 40 59 131 97 178 56 69 250 255 307 295 59 41 80 48
80 27z m-1400 -37 c0 -5 -2 -10 -4 -10 -3 0 -8 5 -11 10 -3 6 -1 10 4 10 6 0
11 -4 11 -10z m1524 -117 c-20 -21 -53 -60 -74 -88 -21 -27 -51 -65 -65 -82
-26 -33 -20 -46 9 -18 19 19 29 4 17 -27 -5 -13 -22 -57 -37 -98 -39 -106
-111 -260 -123 -260 -22 0 -20 40 5 96 39 87 93 244 85 244 -4 0 -31 -35 -59
-77 -68 -104 -111 -151 -145 -159 l-28 -6 21 53 c36 91 96 181 167 249 120
114 187 176 213 193 43 30 51 18 14 -20z m-1184 14 c0 -7 -12 -29 -26 -50
l-25 -38 -32 20 c-18 11 -32 23 -32 26 0 6 93 53 108 54 4 1 7 -5 7 -12z
m-4854 -52 c9 -8 11 -15 6 -15 -5 0 -15 7 -22 15 -7 8 -9 15 -6 15 4 0 14 -7
22 -15z m65 -54 c18 -17 31 -32 28 -36 -4 -3 -22 10 -42 30 -42 42 -33 47 14
6z m3712 -34 c21 -8 22 -21 3 -36 -18 -15 -49 -3 -42 16 3 8 6 22 6 31 0 11 3
13 8 6 4 -6 15 -13 25 -17z m-8493 -42 c0 -5 -5 -3 -10 5 -5 8 -10 20 -10 25
0 6 5 3 10 -5 5 -8 10 -19 10 -25z m4876 5 c24 -17 88 -67 141 -110 156 -127
163 -133 224 -175 31 -22 94 -69 139 -105 45 -36 112 -87 149 -115 38 -27 114
-86 169 -130 55 -44 144 -114 197 -155 53 -41 102 -79 109 -85 11 -10 131
-101 241 -184 33 -25 94 -72 135 -106 41 -33 113 -90 160 -125 47 -36 87 -68
90 -71 3 -3 43 -34 90 -69 47 -34 87 -67 88 -71 2 -5 10 -9 17 -9 7 0 15 -3
17 -7 5 -13 86 -73 97 -73 6 0 11 -4 11 -9 0 -5 44 -42 98 -82 53 -40 101 -79
105 -86 4 -7 15 -13 22 -13 8 0 15 -4 15 -8 0 -5 37 -35 83 -67 45 -33 103
-76 128 -97 26 -21 50 -38 54 -38 3 0 12 -6 20 -12 7 -7 26 -23 41 -35 16 -12
71 -55 122 -95 52 -40 113 -87 135 -105 23 -17 56 -43 73 -57 50 -41 133 -96
144 -96 5 0 10 -3 10 -7 0 -5 16 -25 35 -45 19 -20 35 -41 35 -46 0 -14 -83
-82 -100 -82 -8 0 -29 16 -45 36 -17 20 -48 48 -70 62 -22 14 -51 35 -63 48
-13 13 -44 38 -69 56 -24 18 -59 45 -78 61 -18 15 -36 27 -40 27 -3 0 -12 6
-19 13 -7 6 -25 21 -40 32 -100 74 -135 101 -163 131 -18 18 -33 30 -33 27 0
-3 -18 11 -40 31 -22 20 -44 36 -48 36 -5 0 -38 27 -73 60 -35 33 -69 60 -75
60 -6 0 -21 12 -35 26 -13 14 -46 42 -74 62 -27 20 -73 55 -101 79 -28 24 -56
43 -62 43 -6 0 -14 9 -17 20 -3 11 -11 21 -16 21 -5 1 -13 2 -18 3 -5 0 -23
16 -40 34 -17 17 -33 32 -35 32 -2 0 -18 14 -36 30 -18 17 -36 30 -41 30 -5 0
-17 8 -27 18 -10 9 -70 60 -133 112 -62 52 -126 107 -140 123 -15 15 -31 27
-37 27 -5 0 -36 24 -69 53 -33 28 -75 63 -93 77 -18 14 -54 43 -79 65 -25 22
-82 69 -126 105 -44 35 -85 69 -91 75 -22 20 -126 109 -152 129 -15 12 -34 28
-43 36 -8 8 -40 35 -70 60 -29 25 -79 68 -110 95 -31 28 -97 83 -147 123 -50
41 -108 90 -129 111 -21 21 -76 69 -123 107 -47 38 -90 73 -96 79 -7 5 -43 37
-82 70 -64 54 -82 75 -66 75 3 0 25 -14 50 -30z m4605 -63 c-10 -9 -11 -8 -5
6 3 10 9 15 12 12 3 -3 0 -11 -7 -18z m1323 -65 c-11 -62 -151 -355 -165 -346
-4 2 -9 -3 -11 -12 -2 -15 -5 -15 -14 -3 -9 11 -4 30 23 84 19 39 51 111 72
160 45 111 78 168 91 160 6 -4 8 -22 4 -43z m-1463 -19 c46 -25 62 -43 38 -43
-11 0 -99 58 -99 65 0 9 13 5 61 -22z m1959 -17 c0 -16 -87 -126 -100 -126 -5
0 -53 -60 -108 -132 -105 -141 -122 -158 -190 -202 -44 -27 -44 -27 -37 -4 14
44 55 123 78 150 12 14 42 52 67 84 25 31 72 80 105 109 33 29 80 72 104 94
44 41 81 53 81 27z m198 -137 c14 -1 13 -2 -2 -6 -10 -3 -46 -32 -79 -64 -34
-32 -65 -59 -69 -59 -4 0 -8 -7 -8 -15 0 -8 -4 -15 -10 -15 -5 0 -10 -4 -10
-10 0 -5 7 -7 15 -4 32 13 8 -61 -67 -209 -51 -100 -63 -118 -102 -147 -18
-14 -18 -13 -12 10 7 22 63 145 102 224 8 16 13 30 12 32 -8 7 -27 -15 -81
-93 -53 -75 -118 -134 -125 -113 -7 19 30 117 68 180 42 69 92 127 150 173 19
16 62 55 95 87 65 62 98 77 103 48 2 -10 11 -19 20 -19z m-2361 -81 c-3 -7 -5
-2 -5 12 0 14 2 19 5 13 2 -7 2 -19 0 -25z m94 -54 c11 -14 10 -19 -10 -35
-12 -10 -20 -23 -16 -29 3 -5 0 -10 -8 -10 -19 0 -28 11 -19 24 7 11 8 16 10
49 2 21 25 22 43 1z m84 -34 c-3 -5 -11 -10 -16 -10 -6 0 -7 5 -4 10 3 6 11
10 16 10 6 0 7 -4 4 -10z m912 -22 c-3 -8 -6 -5 -6 6 -1 11 2 17 5 13 3 -3 4
-12 1 -19z m1309 -79 c-4 -34 -11 -69 -16 -78 -5 -9 -27 -59 -49 -111 -50
-117 -84 -183 -98 -187 -13 -5 -24 32 -13 44 3 4 15 31 25 58 9 28 23 64 30
80 7 17 23 57 35 90 32 90 69 165 82 165 7 0 8 -19 4 -61z m332 -123 c-23 -24
-69 -72 -101 -105 -34 -35 -81 -71 -115 -88 -31 -15 -58 -31 -60 -35 -2 -5 -8
-8 -13 -8 -4 0 -32 -11 -61 -24 -29 -13 -64 -27 -77 -31 -23 -7 -23 -6 -16 31
4 22 9 42 11 46 4 6 115 72 209 124 22 12 89 49 150 83 60 33 111 58 113 56 2
-2 -16 -24 -40 -49z m-1909 -194 c12 -22 -3 -42 -30 -42 -20 0 -31 34 -16 49
16 16 35 13 46 -7z m82 -25 c-13 -13 -26 -3 -16 12 3 6 11 8 17 5 6 -4 6 -10
-1 -17z m912 -15 c-3 -12 -9 -22 -14 -22 -5 0 -3 11 3 25 13 30 20 28 11 -3z
m1322 -86 c-8 -49 -89 -243 -142 -339 -21 -38 -44 -80 -51 -93 -14 -25 -27
-30 -36 -15 -3 5 1 14 9 21 8 7 15 27 15 45 0 18 15 65 34 106 18 41 37 85 41
99 7 22 6 23 -9 8 -9 -9 -16 -23 -16 -30 0 -7 -11 -33 -25 -57 -14 -23 -25
-48 -25 -55 0 -7 -8 -21 -17 -32 -10 -10 -24 -31 -32 -46 -17 -33 -34 -35 -62
-7 -23 23 -21 42 11 115 11 24 29 64 40 89 11 25 20 48 20 52 0 29 119 119
170 129 16 4 30 11 30 17 0 16 32 47 42 41 5 -3 6 -25 3 -48z m-7371 -191 c11
-8 17 -17 14 -20 -3 -3 -16 3 -29 14 -27 23 -14 28 15 6z m5682 -37 c-3 -13
-6 -33 -6 -46 0 -13 -4 -21 -9 -18 -5 4 -8 21 -7 39 4 46 5 47 17 47 7 0 9 -9
5 -22z m-5536 -53 c36 -23 112 -70 170 -105 58 -35 123 -76 144 -92 21 -15 45
-28 53 -28 7 0 13 -3 13 -8 0 -4 17 -16 38 -27 20 -11 42 -24 47 -28 6 -5 89
-59 186 -120 198 -127 304 -201 401 -281 67 -55 177 -176 199 -218 7 -13 15
-25 19 -28 4 -3 22 -31 39 -64 18 -32 47 -82 63 -110 56 -94 133 -235 190
-349 30 -60 16 -65 -28 -11 -21 27 -42 51 -46 52 -5 2 -8 8 -8 14 0 6 -15 27
-33 47 -18 20 -66 95 -107 166 -79 139 -144 238 -193 295 -110 129 -232 239
-397 361 -164 121 -190 139 -199 139 -5 0 -11 3 -13 8 -5 12 -86 72 -97 72 -5
0 -11 4 -13 8 -1 4 -52 39 -113 77 -121 77 -264 170 -280 183 -5 4 -30 19 -55
34 -25 14 -54 36 -64 47 -20 22 -20 22 0 15 10 -4 48 -26 84 -49z m5607 -26
c21 -8 24 -14 21 -40 -5 -29 -3 -31 24 -25 15 3 28 1 28 -4 0 -16 -38 -21 -78
-10 -39 10 -52 25 -52 57 0 13 2 13 16 2 15 -12 16 -10 10 21 -3 19 -3 29 0
22 3 -7 17 -18 31 -23z m113 -18 c0 -12 -20 -25 -27 -18 -7 7 6 27 18 27 5 0
9 -4 9 -9z m900 -54 c0 -8 -9 -24 -20 -37 -24 -28 -26 -20 -5 20 17 32 25 38
25 17z m-365 -347 c9 -17 20 -28 26 -25 5 4 7 10 5 14 -3 4 -2 12 2 18 5 8 19
2 42 -17 34 -28 34 -29 16 -49 -19 -21 -19 -21 0 -21 11 0 25 5 31 11 12 12
43 6 43 -9 0 -5 -10 -13 -22 -19 -28 -12 -92 7 -96 28 -1 9 -16 23 -32 33 -17
9 -30 21 -30 26 0 4 -3 15 -6 24 -11 28 5 17 21 -14z m42 -96 c-3 -3 -12 -4
-19 -1 -8 3 -5 6 6 6 11 1 17 -2 13 -5z m1043 -16 c0 -7 -10 -24 -21 -38 -22
-26 -22 -22 1 23 15 30 20 34 20 15z m-360 -353 c7 -14 17 -25 22 -25 5 0 6
11 2 25 -8 33 4 32 44 -4 35 -32 41 -51 17 -51 -8 0 -15 -5 -15 -10 0 -9 27
-7 67 5 21 7 24 -14 4 -24 -32 -17 -93 -13 -129 9 -28 17 -32 23 -22 35 7 9 8
15 2 15 -5 0 -12 11 -14 25 -3 14 -2 25 2 25 4 0 13 -11 20 -25z m1100 -110
c-7 -9 -15 -13 -17 -11 -7 7 7 26 19 26 6 0 6 -6 -2 -15z m-343 -332 c6 -2 13
6 17 19 4 14 9 19 13 12 5 -6 23 -19 41 -28 l32 -17 -20 -21 c-11 -12 -17 -24
-14 -27 3 -3 8 -1 12 5 9 14 57 26 66 17 9 -9 -24 -43 -42 -43 -31 0 -82 24
-88 42 -3 10 -10 17 -16 15 -15 -3 -38 42 -37 73 0 22 2 21 13 -9 7 -19 17
-36 23 -38z m876 40 c-8 -21 -33 -48 -33 -36 0 10 29 53 35 53 3 0 1 -8 -2
-17z m-5436 -45 c26 -17 50 -35 53 -38 3 -3 28 -24 55 -45 28 -22 52 -43 53
-47 2 -5 8 -8 14 -8 10 0 80 -56 136 -107 14 -13 28 -23 32 -23 4 0 16 -8 28
-17 11 -10 64 -52 118 -93 54 -41 118 -93 143 -115 25 -23 73 -61 106 -85 33
-25 62 -47 65 -51 7 -8 359 -289 400 -319 44 -33 93 -72 105 -86 16 -16 112
-94 117 -94 3 0 23 -17 44 -37 37 -34 214 -178 334 -270 30 -23 69 -54 85 -69
17 -14 46 -38 65 -52 19 -15 71 -56 115 -92 44 -36 96 -77 115 -91 34 -26 50
-40 115 -97 50 -44 172 -142 177 -142 3 0 25 -18 49 -40 24 -22 48 -40 52 -40
5 0 14 -6 21 -12 7 -7 27 -24 45 -38 18 -13 48 -38 66 -55 47 -44 80 -71 98
-81 8 -5 30 -23 49 -39 18 -17 62 -53 98 -80 36 -28 67 -52 70 -55 3 -3 25
-21 50 -40 25 -19 50 -39 56 -45 30 -27 63 -53 76 -61 8 -5 37 -28 64 -51 43
-36 112 -91 201 -160 15 -12 39 -31 53 -43 49 -42 66 -56 110 -90 25 -19 47
-37 50 -40 3 -3 21 -17 40 -30 19 -14 49 -37 65 -52 57 -51 78 -68 84 -68 3 0
22 -15 41 -33 20 -17 55 -48 79 -67 24 -19 49 -41 56 -47 8 -7 18 -13 24 -13
6 0 11 -4 11 -8 0 -5 21 -24 48 -42 26 -19 53 -40 60 -47 8 -7 30 -26 50 -41
21 -15 42 -31 49 -37 6 -5 24 -20 40 -32 15 -12 39 -31 53 -43 14 -12 41 -34
60 -49 19 -14 41 -32 48 -39 8 -7 30 -25 50 -40 21 -15 42 -32 47 -38 6 -5 28
-23 50 -39 22 -16 52 -42 67 -57 15 -16 32 -28 37 -28 5 0 16 -8 23 -18 7 -10
42 -40 78 -67 80 -60 173 -134 221 -175 20 -16 42 -30 48 -30 6 0 11 -7 11
-15 0 -8 6 -15 13 -15 6 0 32 -19 57 -41 92 -85 158 -139 168 -139 5 0 16 -7
23 -17 8 -9 37 -33 65 -54 28 -20 57 -44 65 -51 8 -8 30 -25 49 -38 19 -14 42
-31 50 -38 8 -7 43 -36 76 -63 70 -57 72 -71 17 -119 -36 -32 -48 -36 -58 -20
-4 6 -30 25 -58 44 -29 18 -74 53 -102 78 -27 24 -66 55 -85 68 -19 14 -44 32
-54 42 -11 10 -38 30 -60 45 -23 15 -69 49 -102 75 -34 27 -64 48 -67 48 -3 0
-23 17 -44 38 -21 21 -54 50 -75 65 -20 15 -42 32 -50 39 -7 7 -43 37 -80 67
-38 30 -68 58 -68 63 0 4 -5 8 -10 8 -11 0 -122 89 -176 141 -16 16 -33 29
-37 29 -7 0 -155 126 -251 213 -17 15 -36 27 -44 27 -7 0 -15 7 -18 15 -4 8
-11 15 -16 15 -10 0 -86 59 -138 106 -14 13 -38 34 -55 48 -16 14 -50 43 -75
65 -25 22 -48 41 -52 41 -5 0 -17 8 -28 18 -10 9 -30 26 -42 38 -13 11 -31 23
-41 27 -9 3 -17 11 -17 16 0 6 -12 17 -27 25 -25 13 -57 38 -118 95 -11 10
-38 31 -60 47 -22 16 -44 34 -48 41 -4 7 -43 39 -85 72 -42 32 -84 68 -92 80
-8 12 -22 21 -32 21 -9 0 -21 6 -25 13 -7 10 -57 53 -127 107 -11 8 -33 27
-49 43 -16 15 -31 27 -34 27 -6 0 -103 78 -118 95 -5 7 -28 23 -50 37 -22 14
-53 39 -70 55 -16 15 -48 42 -70 58 -22 16 -50 39 -62 52 -12 13 -25 23 -29
23 -4 0 -24 15 -45 33 -21 17 -63 52 -94 77 -31 25 -75 62 -98 82 -23 21 -45
38 -49 38 -9 0 -39 24 -78 63 -16 15 -32 27 -36 27 -3 0 -23 15 -44 33 -66 57
-122 102 -139 111 -9 5 -34 26 -55 48 -22 21 -46 38 -53 38 -7 0 -18 9 -25 20
-7 11 -16 20 -21 20 -4 0 -27 18 -49 40 -23 22 -46 40 -50 40 -9 0 -77 55
-216 173 -40 34 -78 64 -84 66 -16 5 -48 40 -48 51 0 6 -6 10 -13 10 -11 0
-131 90 -147 110 -3 3 -21 17 -40 30 -19 13 -46 35 -60 47 -14 13 -43 37 -65
54 -81 62 -97 74 -116 91 -11 9 -38 31 -61 50 -23 18 -47 39 -54 46 -7 6 -16
12 -21 12 -4 0 -22 14 -40 30 -18 17 -36 30 -41 30 -6 0 -12 7 -15 15 -4 8
-24 25 -46 39 -22 14 -52 37 -68 51 -15 13 -57 49 -93 77 -36 29 -89 72 -117
96 -28 23 -56 42 -61 42 -6 0 -12 6 -15 13 -3 7 -24 26 -48 42 -24 17 -53 40
-65 53 -12 12 -25 22 -29 22 -4 0 -17 9 -29 20 -18 16 -131 106 -226 180 -14
11 -65 51 -115 91 -49 39 -96 74 -102 76 -18 7 -16 21 9 55 19 28 25 30 64 24
23 -3 64 -20 91 -38z m5654 -65 c-12 -20 -14 -14 -5 12 4 9 9 14 11 11 3 -2 0
-13 -6 -23z m-1041 -33 c0 -5 -2 -10 -4 -10 -3 0 -8 5 -11 10 -3 6 -1 10 4 10
6 0 11 -4 11 -10z m-6075 -151 c9 -17 15 -40 13 -52 -3 -20 -5 -20 -20 8 -23
44 -31 75 -19 75 6 0 18 -14 26 -31z m7611 -168 c-9 -10 -16 -23 -16 -29 0 -7
-4 -12 -10 -12 -11 0 -3 25 19 59 9 14 17 19 19 12 2 -7 -3 -20 -12 -30z
m22469 16 c59 -18 158 -44 350 -91 193 -48 1589 -403 1670 -426 61 -16 915
-233 1050 -266 77 -19 149 -37 160 -39 69 -19 433 -112 550 -141 77 -19 148
-39 157 -44 10 -6 26 -10 35 -10 19 0 254 -59 483 -121 19 -5 53 -13 75 -18
22 -5 139 -34 260 -66 591 -151 855 -219 905 -230 30 -7 125 -32 210 -54 85
-23 180 -46 210 -52 30 -6 64 -15 75 -19 20 -9 160 -46 225 -60 19 -4 123 -30
230 -58 183 -48 887 -227 1210 -308 80 -20 154 -40 165 -44 21 -7 216 -57 275
-70 30 -7 362 -91 1110 -281 247 -63 446 -114 675 -174 99 -25 241 -61 315
-80 300 -74 427 -106 475 -120 28 -8 174 -46 325 -84 276 -70 758 -193 1010
-257 184 -48 195 -51 275 -69 39 -9 99 -24 135 -34 36 -11 76 -21 90 -24 39
-8 404 -102 510 -132 134 -37 309 -100 415 -148 85 -39 703 -347 735 -367 8
-5 49 -24 90 -42 41 -18 77 -35 80 -38 3 -3 85 -45 184 -95 252 -127 246 -123
246 -180 0 -35 -15 -55 -42 -55 -10 0 -18 -5 -18 -11 0 -8 -16 -10 -52 -5 -29
4 -82 11 -118 16 -36 5 -121 16 -190 24 -210 26 -363 47 -372 52 -4 3 -8 17
-8 32 l0 27 -23 -28 -23 -29 -119 12 c-66 6 -122 13 -126 15 -3 2 -57 9 -120
15 -63 6 -142 18 -177 26 -35 8 -80 14 -100 14 -21 0 -53 5 -72 10 -19 6 -84
17 -145 26 -60 8 -113 20 -116 25 -3 6 -26 13 -50 16 -24 2 -53 8 -64 13 -11
4 -47 13 -80 20 -33 7 -85 19 -115 27 -30 8 -68 17 -85 20 -16 3 -34 9 -40 13
-5 4 -32 11 -60 15 -52 7 -142 29 -185 44 -14 5 -70 18 -125 30 -55 12 -128
31 -162 41 -34 11 -71 20 -82 20 -11 0 -22 4 -25 9 -3 4 -29 11 -58 15 -69 9
-141 28 -149 39 -4 5 -28 12 -55 14 -27 3 -53 9 -59 13 -5 5 -53 16 -105 25
-52 10 -98 22 -101 27 -3 5 -26 12 -50 15 -24 2 -53 8 -64 12 -36 15 -119 34
-162 39 -24 2 -43 8 -43 13 0 8 -67 25 -83 21 -4 -1 -17 3 -29 9 -25 14 -142
39 -179 39 -15 0 -29 6 -32 14 -3 7 -18 16 -34 19 -15 3 -64 13 -108 22 -44 9
-100 19 -125 22 -25 3 -49 12 -53 19 -4 8 -21 14 -37 14 -16 0 -47 7 -67 14
-21 8 -76 22 -122 30 -47 9 -89 20 -95 26 -5 5 -23 10 -38 10 -16 0 -43 6 -61
13 -18 8 -50 17 -72 21 -64 11 -139 29 -150 36 -10 7 -49 16 -230 56 -44 10
-82 21 -85 26 -3 4 -27 9 -52 12 -26 2 -56 10 -68 16 -12 6 -42 15 -68 20 -45
8 -172 41 -239 61 -18 6 -54 14 -80 19 -27 5 -82 18 -123 30 -41 12 -112 31
-158 41 -46 11 -100 26 -119 34 -20 8 -48 15 -64 15 -15 0 -30 4 -33 9 -3 4
-40 14 -83 21 -43 7 -100 21 -128 31 -27 10 -62 19 -77 19 -15 0 -29 4 -32 9
-3 4 -40 14 -83 21 -43 7 -100 21 -128 31 -27 10 -62 19 -77 19 -15 0 -29 4
-32 9 -3 5 -27 12 -53 16 -27 3 -79 16 -118 27 -38 11 -83 22 -100 25 -16 3
-34 9 -40 13 -5 4 -30 10 -55 14 -68 10 -144 29 -151 39 -3 5 -26 11 -50 14
-24 2 -53 8 -64 13 -11 5 -36 11 -55 14 -65 9 -145 29 -151 38 -3 5 -30 13
-60 18 -30 4 -79 15 -109 24 -30 9 -75 19 -100 23 -25 3 -49 12 -53 19 -5 8
-25 14 -48 14 -22 0 -50 5 -61 11 -12 6 -61 20 -109 30 -48 10 -96 22 -106 28
-25 13 -121 37 -223 56 -46 9 -87 20 -90 24 -3 5 -25 11 -50 14 -25 3 -56 10
-70 16 -14 5 -63 17 -109 25 -47 9 -87 20 -90 25 -3 5 -26 11 -51 14 -25 3
-62 12 -82 21 -21 9 -47 16 -58 16 -11 0 -49 8 -83 19 -62 18 -167 45 -242 61
-22 4 -73 18 -113 30 -40 12 -78 19 -85 17 -7 -2 -25 2 -40 10 -16 8 -50 18
-75 23 -26 4 -95 22 -153 39 -58 16 -126 33 -150 37 -40 6 -152 37 -189 52 -8
3 -26 7 -40 8 -34 3 -176 41 -199 54 -11 5 -33 10 -50 10 -16 0 -32 4 -35 9
-3 4 -40 14 -83 21 -43 7 -100 21 -128 31 -27 10 -60 19 -73 19 -12 0 -30 4
-40 9 -9 5 -44 14 -77 20 -33 7 -88 21 -122 31 -34 11 -70 20 -80 20 -11 0
-23 4 -28 9 -6 5 -28 11 -50 14 -67 9 -150 30 -156 39 -3 5 -26 12 -50 15 -24
3 -57 12 -72 20 -15 8 -31 11 -36 8 -5 -2 -28 2 -51 10 -23 8 -57 15 -75 15
-20 0 -35 6 -39 15 -3 8 -15 15 -26 15 -11 0 -68 11 -126 25 -58 14 -118 25
-134 25 -16 0 -30 6 -32 12 -5 13 -42 22 -218 59 -52 10 -96 23 -98 29 -2 5
-14 10 -27 10 -13 0 -36 5 -52 11 -15 6 -48 15 -73 20 -25 5 -88 20 -140 35
-122 33 -165 44 -220 54 -25 5 -85 20 -135 35 -49 14 -121 33 -160 40 -38 8
-104 23 -145 35 -41 12 -84 23 -95 25 -40 7 -177 45 -187 52 -7 3 -28 10 -47
14 -20 4 -80 17 -133 28 -54 11 -114 27 -134 36 -20 8 -47 15 -60 15 -14 0
-32 4 -42 9 -19 10 -151 41 -175 41 -8 0 -17 5 -19 11 -2 5 -24 13 -48 15 -25
3 -54 9 -65 14 -11 5 -36 11 -55 14 -65 9 -145 29 -151 38 -3 5 -49 18 -102
29 -53 10 -108 24 -122 29 -15 6 -41 10 -60 10 -20 0 -35 6 -39 15 -3 8 -16
15 -29 15 -14 0 -60 9 -103 20 -44 11 -103 23 -131 26 -35 5 -53 11 -53 20 0
8 -11 14 -25 14 -14 0 -25 4 -25 9 0 5 -23 17 -51 26 -53 18 -106 63 -126 108
-18 40 -16 153 4 207 48 129 151 231 271 272 46 15 79 17 167 14 61 -2 133
-10 160 -19z m-23338 -9 c-3 -8 -6 -5 -6 6 -1 11 2 17 5 13 3 -3 4 -12 1 -19z
m83 -20 c25 -18 41 -48 26 -48 -2 0 -12 -3 -20 -6 -12 -4 -20 4 -31 30 -23 55
-20 58 25 24z m-193 -64 c-3 -3 -12 -4 -19 -1 -8 3 -5 6 6 6 11 1 17 -2 13 -5z
m281 -6 c-3 -7 -20 -14 -39 -16 -50 -5 -19 19 34 27 5 0 7 -5 5 -11z m913 -30
c-11 -18 -21 -29 -21 -25 0 13 33 67 38 62 3 -2 -5 -19 -17 -37z m-1085 -28
c42 -27 84 -52 95 -55 10 -4 19 -10 19 -15 0 -14 -49 10 -107 52 -29 21 -56
38 -60 38 -14 1 -47 30 -34 30 6 0 46 -22 87 -50z m1545 -303 c-10 -9 -11 -8
-5 6 3 10 9 15 12 12 3 -3 0 -11 -7 -18z m-812 -57 c1 -13 0 -13 -9 0 -5 8 -9
24 -9 35 l0 20 9 -20 c5 -11 9 -27 9 -35z m100 2 c11 -6 -27 -32 -40 -27 -16
6 -40 60 -32 69 3 3 19 -5 37 -17 17 -12 33 -23 35 -25z m1331 -12 c0 -5 -4
-10 -10 -10 -5 0 -10 -9 -10 -20 0 -11 -7 -20 -15 -20 -19 0 -19 5 1 35 17 25
34 33 34 15z m-1540 -10 c8 -5 11 -10 5 -10 -5 0 -17 5 -25 10 -8 5 -10 10 -5
10 6 0 17 -5 25 -10z m260 -32 c-22 -18 -60 -25 -60 -10 0 12 54 39 69 34 11
-4 9 -10 -9 -24z m881 5 c-12 -20 -14 -14 -5 12 4 9 9 14 11 11 3 -2 0 -13 -6
-23z m-1078 -11 c52 -28 88 -54 83 -59 -5 -6 -64 28 -105 59 -30 23 -20 23 22
0z m813 -348 c39 -30 42 -40 13 -47 -25 -7 -59 24 -59 53 0 26 4 25 46 -6z
m-161 -64 c3 -6 -1 -7 -9 -4 -18 7 -21 14 -7 14 6 0 13 -4 16 -10z m230 -20
c-3 -5 -18 -10 -33 -9 -24 0 -25 1 -7 9 28 12 47 12 40 0z m-160 -20 c17 -11
24 -20 17 -20 -8 0 -25 9 -39 20 -33 26 -17 26 22 0z m-15290 -497 l30 -25
-30 7 c-16 3 -41 17 -54 29 l-23 24 23 -5 c13 -3 38 -16 54 -30z m774 -847
c42 -61 50 -86 28 -86 -17 0 -77 100 -77 130 0 13 2 21 4 19 2 -2 22 -31 45
-63z m50951 -26 c0 -5 -7 -10 -15 -10 -8 0 -15 5 -15 10 0 6 7 10 15 10 8 0
15 -4 15 -10z m-36320 -1170 c0 -5 -5 -10 -11 -10 -5 0 -7 5 -4 10 3 6 8 10
11 10 2 0 4 -4 4 -10z m-860 -509 c0 -10 -24 -21 -46 -21 -8 0 -14 4 -14 9 0
8 10 12 53 20 4 0 7 -3 7 -8z m380 -291 c0 -5 -5 -10 -11 -10 -5 0 -7 5 -4 10
3 6 8 10 11 10 2 0 4 -4 4 -10z m-17120 -943 c59 -57 71 -72 131 -170 28 -45
57 -89 64 -97 8 -8 17 -28 21 -45 4 -16 10 -32 13 -35 9 -8 71 -137 71 -148 0
-6 4 -12 9 -14 18 -6 32 -168 23 -248 l-9 -75 -4 70 c-2 39 -2 94 -1 123 2 41
-1 52 -13 52 -8 0 -15 5 -15 10 0 6 -16 45 -35 86 -19 41 -35 81 -35 88 0 7
-7 19 -15 26 -8 7 -15 18 -15 25 0 6 -11 25 -25 41 -14 16 -25 35 -25 42 0 7
-9 22 -20 34 -11 12 -20 28 -20 35 0 7 -6 13 -12 13 -7 0 -24 19 -38 41 -14
22 -37 53 -52 67 -15 15 -28 31 -28 35 0 4 -11 20 -25 35 -59 63 -9 71 55 9z
m-2720 -1463 c19 -4 39 -13 43 -20 11 -18 33 -18 41 1 7 19 55 19 104 0 26
-11 59 -14 100 -12 34 3 62 1 62 -3 0 -4 -26 -14 -57 -23 -32 -8 -98 -27 -148
-42 l-90 -27 -16 21 c-10 12 -22 21 -28 21 -6 0 -11 4 -11 10 0 5 -17 14 -38
19 -52 15 -77 34 -69 56 7 18 12 18 107 -1z m5440 -74 c0 -5 -5 -10 -11 -10
-5 0 -7 5 -4 10 3 6 8 10 11 10 2 0 4 -4 4 -10z m-1740 -240 c0 -5 -4 -10 -10
-10 -5 0 -10 5 -10 10 0 6 5 10 10 10 6 0 10 -4 10 -10z m-3309 -40 c5 0 9 -9
9 -20 0 -11 7 -23 15 -27 14 -5 14 -8 -2 -23 -16 -15 -21 -15 -39 -3 -21 13
-37 60 -27 76 3 5 12 6 20 3 8 -3 19 -6 24 -6z m3369 -66 c0 -21 25 -64 37
-64 9 0 13 -17 12 -53 -1 -32 5 -66 15 -85 9 -17 16 -41 16 -54 0 -37 -27 -1
-42 57 -7 28 -17 53 -22 57 -5 3 -13 37 -18 75 -4 37 -14 73 -21 78 -8 6 -14
18 -14 29 0 16 3 15 18 -5 10 -13 19 -29 19 -35z m1235 -154 c-3 -5 -10 -10
-16 -10 -5 0 -9 5 -9 10 0 6 7 10 16 10 8 0 12 -4 9 -10z m13376 -105 c0 -5
-12 -11 -26 -13 -18 -2 -25 1 -25 13 0 12 7 15 25 13 14 -2 26 -7 26 -13z
m-14521 -57 c0 -7 3 -31 6 -53 4 -27 2 -35 -4 -25 -15 24 -24 90 -12 90 5 0
10 -6 10 -12z m14330 -7 c0 -6 -4 -13 -10 -16 -5 -3 -10 1 -10 9 0 9 5 16 10
16 6 0 10 -4 10 -9z m-18620 -23 c38 4 46 -2 41 -30 0 -5 17 -8 39 -8 29 0 40
-4 40 -15 0 -11 11 -15 39 -15 33 0 46 -7 79 -41 23 -23 42 -35 44 -28 2 7 20
-3 42 -25 22 -20 33 -36 25 -37 -10 0 -11 -2 -1 -6 6 -2 12 -11 12 -19 0 -20
18 -17 31 5 11 16 25 18 167 15 133 -3 162 -1 210 16 59 21 122 26 122 11 0
-38 -150 -84 -311 -97 -71 -6 -88 -10 -111 -32 -16 -14 -28 -31 -28 -38 0 -6
-10 -14 -21 -17 -29 -8 -61 29 -54 63 3 15 2 20 -3 13 -6 -9 -12 -8 -25 7 -9
11 -27 20 -40 20 -32 0 -86 19 -119 42 -14 10 -31 18 -37 18 -7 0 -22 9 -34
21 -12 11 -34 23 -48 26 -26 5 -49 38 -49 68 0 8 -9 15 -20 15 -22 0 -40 28
-39 62 0 13 3 18 5 13 2 -6 22 -9 44 -7z m18637 -14 c-3 -3 -12 -4 -19 -1 -8
3 -5 6 6 6 11 1 17 -2 13 -5z m-60 -30 c-3 -3 -12 -4 -19 -1 -8 3 -5 6 6 6 11
1 17 -2 13 -5z m-14258 -89 c0 -5 -4 -3 -9 5 -5 8 -9 22 -9 30 0 16 17 -16 18
-35z m-3356 -15 c13 -1 -22 -30 -35 -30 -4 0 -8 9 -8 21 0 15 4 19 16 15 9 -3
21 -6 27 -6z m3364 -252 c-2 -24 -4 -5 -4 42 0 47 2 66 4 43 2 -24 2 -62 0
-85z m2084 0 c2 -69 -2 -113 -11 -118 -4 -3 -10 -15 -14 -28 -4 -12 -12 -20
-17 -17 -5 4 -9 -3 -9 -14 0 -12 -4 -21 -8 -21 -4 0 -14 -17 -21 -37 -8 -20
-22 -46 -32 -57 -11 -11 -19 -30 -19 -43 0 -13 -4 -23 -8 -23 -4 0 -18 -19
-30 -42 -42 -80 -81 -138 -119 -177 -33 -34 -78 -133 -98 -215 -14 -60 -35
-107 -55 -126 -3 -3 -13 -18 -22 -35 -9 -17 -27 -31 -40 -33 -13 -2 -27 -8
-33 -14 -7 -8 -6 -9 3 -4 6 4 12 5 12 2 0 -8 -70 -42 -102 -50 -16 -3 -28 -11
-28 -16 0 -13 -27 -40 -63 -63 -15 -10 -25 -22 -22 -27 10 -16 -23 -67 -58
-89 -18 -11 -39 -32 -47 -46 -8 -15 -25 -27 -46 -31 -25 -5 -33 -12 -38 -35
-7 -35 -9 -38 -113 -145 -46 -46 -89 -84 -96 -84 -8 0 -20 -11 -27 -25 -7 -14
-19 -25 -26 -25 -7 0 -21 -11 -31 -23 -10 -13 -23 -26 -29 -28 -6 -2 -26 -16
-45 -31 -87 -71 -226 -151 -299 -173 -14 -4 -36 -16 -49 -26 -13 -11 -27 -19
-32 -19 -5 0 -33 -11 -63 -25 -106 -49 -104 -48 -280 -84 -133 -27 -394 -31
-408 -6 -7 11 -16 14 -31 9 -19 -6 -20 -5 -5 10 9 9 30 16 45 16 16 0 54 12
83 26 42 20 64 25 97 21 24 -2 46 -1 49 4 3 5 16 9 30 9 13 0 24 4 24 8 0 12
70 43 81 36 5 -3 25 3 44 15 23 14 35 16 38 8 3 -9 8 -9 18 1 7 6 23 12 36 12
14 0 23 6 23 15 0 11 11 15 40 15 36 0 40 3 40 25 0 22 4 25 39 25 22 0 41 -5
43 -11 2 -6 19 3 37 20 25 23 36 29 42 20 5 -9 16 -4 37 19 25 26 38 32 72 32
35 0 47 6 80 40 32 33 45 40 78 40 33 0 47 7 82 41 33 32 44 38 51 28 7 -11
15 -7 39 19 17 17 37 32 45 32 8 0 20 9 27 20 7 11 18 20 25 20 7 0 13 7 13
15 0 8 12 22 28 32 15 10 36 27 48 39 11 11 32 24 46 27 15 4 30 16 33 27 4
14 15 20 35 20 25 0 29 4 35 38 4 24 15 45 32 57 14 11 29 30 34 42 5 13 15
23 24 23 9 0 15 9 15 25 0 14 3 25 8 25 4 0 16 13 27 30 11 16 32 34 48 39 15
6 30 17 33 26 4 10 19 15 45 15 l39 0 -1 63 c-2 92 7 109 126 232 76 78 95
103 95 125 0 21 26 63 68 110 12 14 34 44 49 68 15 23 30 42 34 42 4 0 13 17
20 38 7 20 20 43 31 50 10 8 18 25 18 43 0 19 5 29 15 29 8 0 19 16 25 39 5
21 17 42 25 45 8 3 15 12 15 21 0 26 34 135 43 135 4 0 7 -19 8 -42z m682
-138 c-3 -11 -7 -20 -9 -20 -2 0 -4 9 -4 20 0 11 4 20 9 20 5 0 7 -9 4 -20z
m-50 -32 c-11 -18 -27 -32 -36 -32 -9 1 -14 -2 -11 -7 3 -5 -10 -17 -28 -28
-18 -11 -38 -25 -45 -30 -7 -6 -16 -11 -20 -11 -4 0 -34 -18 -66 -40 -31 -22
-59 -40 -62 -40 -2 0 -29 -11 -59 -25 -30 -14 -59 -25 -65 -25 -5 0 -31 -11
-58 -24 -50 -25 -140 -52 -148 -44 -3 3 13 13 35 24 22 10 40 26 40 35 0 11
17 20 55 28 30 7 57 17 60 22 4 5 15 9 26 9 10 0 19 6 19 13 0 6 19 20 43 31
23 10 50 22 59 27 10 5 27 9 38 9 11 0 20 6 20 14 0 8 13 17 29 21 16 3 39 15
52 26 12 10 29 19 38 19 9 0 29 14 44 30 16 17 35 30 44 30 12 0 12 -5 -4 -32z
m-6633 -449 c0 -18 -2 -19 -15 -9 -8 7 -15 16 -15 21 0 5 7 9 15 9 9 0 15 -9
15 -21z m60 -74 c0 -19 -38 -26 -45 -7 -7 18 12 33 32 25 7 -3 13 -11 13 -18z
m50 -31 c0 -8 -5 -12 -10 -9 -6 4 -8 11 -5 16 9 14 15 11 15 -7z m120 -39 c0
-2 -9 -9 -20 -15 -16 -9 -20 -8 -20 5 0 8 9 15 20 15 11 0 20 -2 20 -5z m1850
-13 c0 -10 7 -28 16 -40 14 -21 14 -22 -5 -22 -16 0 -21 6 -21 24 0 14 -4 28
-10 31 -15 9 -12 25 5 25 8 0 15 -8 15 -18z m144 -191 c15 -16 28 -33 28 -38
1 -25 28 -45 60 -42 74 5 118 -1 118 -15 0 -8 -10 -16 -22 -18 -13 -2 23 -2
80 0 89 4 102 3 102 -12 0 -12 10 -16 40 -16 22 0 40 -4 40 -10 0 -5 18 -10
40 -10 22 0 40 5 40 10 0 6 18 10 40 10 22 0 40 4 40 9 0 12 62 18 113 11 l42
-5 -90 -30 c-49 -16 -98 -30 -107 -31 -10 -1 -19 -2 -20 -3 -13 -10 -96 -16
-210 -16 -126 0 -139 2 -167 23 -17 12 -39 22 -49 22 -11 0 -27 11 -36 25 -9
14 -22 25 -29 23 -14 -3 -85 67 -103 101 -25 48 8 56 50 12z m932 -46 c-16
-16 -36 -20 -36 -7 0 14 12 22 32 22 17 0 18 -2 4 -15z m-3672 -1195 c-7 -7
-19 -7 -35 -1 -23 9 -22 10 11 10 23 1 31 -2 24 -9z m455 -1011 c6 -18 11 -47
11 -65 0 -25 5 -34 16 -34 13 0 15 -8 12 -40 -2 -22 -1 -40 2 -40 3 0 4 -18 2
-40 -4 -40 -4 -40 32 -40 35 0 36 -1 36 -40 0 -30 4 -40 16 -40 13 0 15 -7 9
-40 -4 -25 -3 -40 3 -40 6 0 12 -10 14 -22 2 -16 9 -22 21 -20 11 2 25 -10 38
-33 21 -35 39 -46 39 -23 0 7 16 -3 35 -22 22 -21 31 -36 24 -41 -8 -4 -7 -9
2 -15 7 -4 14 -3 17 4 6 19 18 14 51 -19 27 -26 37 -30 71 -27 28 2 40 0 40
-9 0 -7 -9 -13 -20 -13 -23 0 -26 -10 -8 -28 10 -10 16 -9 28 5 8 10 14 16 12
14 -1 -3 15 -22 35 -43 29 -29 35 -41 25 -47 -18 -11 7 -21 54 -21 19 0 34 -4
34 -10 0 -5 18 -10 40 -10 22 0 39 -3 39 -7 -4 -26 4 -33 41 -33 29 0 40 -4
40 -15 0 -12 16 -15 80 -15 64 0 80 -3 80 -15 0 -8 9 -15 20 -15 11 0 20 -4
20 -10 0 -5 9 -10 20 -10 11 0 20 5 20 10 0 6 18 10 40 10 22 0 40 -4 40 -10
0 -6 33 -10 80 -10 47 0 80 4 80 10 0 6 18 10 40 10 22 0 40 -4 40 -10 0 -6
33 -10 80 -10 47 0 80 4 80 10 0 6 18 10 40 10 22 0 40 -4 40 -10 0 -5 5 -10
11 -10 5 0 7 5 4 10 -4 6 6 10 23 10 49 0 122 -12 122 -20 0 -9 -60 -16 -255
-30 -79 -5 -141 -14 -143 -20 -5 -13 -82 -13 -82 0 0 6 -51 10 -133 10 -102 0
-138 3 -154 15 -12 8 -29 12 -38 9 -8 -4 -23 0 -33 9 -9 8 -28 16 -42 16 -83
4 -157 15 -174 27 -11 8 -29 14 -39 14 -11 0 -32 11 -49 25 -16 14 -42 25 -58
25 -15 0 -33 7 -40 15 -7 8 -18 15 -25 15 -8 0 -15 4 -17 8 -1 4 -28 18 -58
31 -30 13 -75 40 -100 60 -25 20 -65 50 -90 66 -57 38 -112 99 -125 139 -6 17
-16 30 -23 29 -7 -2 -12 4 -12 13 0 9 -9 27 -20 41 -11 14 -20 34 -20 44 0 11
-7 19 -15 19 -12 0 -15 19 -16 108 0 84 -3 102 -11 85 -6 -13 -14 -23 -18 -23
-12 0 -18 64 -7 71 6 4 7 30 3 68 -8 66 5 82 23 30z m2921 -189 c-19 -13 -30
-13 -30 0 0 6 10 10 23 10 18 0 19 -2 7 -10z m-50 -25 c0 -16 -27 -32 -37 -22
-3 4 -3 13 0 22 8 20 37 20 37 0z m-88 -82 c-9 -21 -23 -42 -29 -46 -7 -4 -13
-15 -13 -23 0 -21 -34 -13 -38 9 -2 12 3 17 18 17 16 0 26 11 38 40 9 22 23
40 29 40 9 0 8 -10 -5 -37z m35 0 c-3 -10 -5 -4 -5 12 0 17 2 24 5 18 2 -7 2
-21 0 -30z m-211 -159 c-22 -16 -36 -18 -36 -6 0 11 43 32 50 25 3 -3 -4 -11
-14 -19z m-755 -456 c0 -10 2 -10 6 0 2 6 18 12 35 12 30 0 31 0 13 -20 -13
-14 -31 -20 -62 -20 -46 0 -46 0 -37 24 7 19 44 22 45 4z"/>
<path d="M12137 35394 c-4 -4 -7 -17 -7 -28 1 -18 2 -19 13 -6 7 9 20 14 31
12 12 -3 17 1 14 10 -5 14 -40 23 -51 12z"/>
<path d="M12983 35233 c15 -2 39 -2 55 0 15 2 2 4 -28 4 -30 0 -43 -2 -27 -4z"/>
<path d="M12835 35190 c-4 -6 5 -10 19 -10 14 0 26 5 26 10 0 6 -9 10 -19 10
-11 0 -23 -4 -26 -10z"/>
<path d="M14073 34937 c-24 -11 -43 -28 -43 -36 0 -9 23 -54 50 -101 28 -47
53 -93 56 -102 3 -10 10 -18 15 -18 5 0 9 -7 9 -15 0 -20 16 -19 67 6 77 37
91 99 46 190 -48 94 -115 119 -200 76z"/>
<path d="M13106 34821 c-4 -7 -5 -15 -2 -18 9 -9 19 4 14 18 -4 11 -6 11 -12
0z"/>
<path d="M15036 33295 c-9 -26 -7 -32 5 -12 6 10 9 21 6 23 -2 3 -7 -2 -11
-11z"/>
<path d="M18360 31384 c0 -8 5 -12 10 -9 6 3 10 10 10 16 0 5 -4 9 -10 9 -5 0
-10 -7 -10 -16z"/>
<path d="M865 17870 c3 -5 8 -10 11 -10 2 0 4 5 4 10 0 6 -5 10 -11 10 -5 0
-7 -4 -4 -10z"/>
<path d="M1444 17398 c-10 -16 2 -18 21 -5 16 12 16 14 1 14 -9 0 -19 -4 -22
-9z"/>
<path d="M14760 35790 c0 -12 23 -63 31 -70 3 -3 14 -20 23 -38 9 -18 41 -74
71 -124 30 -50 55 -95 55 -100 0 -5 8 -21 19 -36 22 -33 118 -197 158 -272 74
-139 119 -219 148 -265 17 -27 42 -72 55 -99 29 -57 106 -122 155 -132 42 -8
125 3 125 17 0 5 5 9 10 9 6 0 57 25 113 56 56 31 140 76 187 101 47 25 96 53
110 63 14 9 59 35 100 57 123 66 195 106 200 112 3 3 21 14 40 23 38 19 126
68 205 115 28 16 57 32 66 35 30 11 154 95 180 122 45 45 62 159 30 201 -5 6
-27 46 -51 90 -23 44 -51 95 -62 113 l-20 32 -499 0 -500 0 22 -40 c13 -22 27
-40 32 -40 5 0 36 14 68 31 33 18 62 29 65 26 14 -14 -7 -35 -55 -58 -28 -13
-53 -30 -56 -38 -3 -7 11 -39 30 -71 19 -32 35 -65 35 -74 0 -23 -23 -20 -40
7 -15 23 -21 33 -67 121 -16 28 -30 53 -33 56 -4 3 -14 22 -23 43 l-18 37
-454 0 c-282 0 -455 -4 -455 -10z"/>
<path d="M16910 35794 c0 -10 35 -69 43 -72 4 -2 7 -8 7 -14 0 -29 67 -100
118 -124 82 -39 104 -33 307 81 44 25 91 51 105 57 14 7 27 15 30 18 3 3 22
14 43 24 20 11 37 23 37 28 0 4 -155 8 -345 8 -190 0 -345 -3 -345 -6z"/>
<path d="M18052 35733 c5 -70 8 -78 157 -338 13 -22 33 -58 46 -80 203 -360
230 -407 278 -497 70 -131 171 -302 195 -329 14 -18 44 -40 67 -50 60 -28 110
-24 185 14 79 40 201 107 215 117 6 5 30 19 55 33 205 111 255 137 262 137 4
0 8 5 8 10 0 6 4 10 9 10 5 0 61 29 125 64 63 36 143 80 178 99 327 177 357
200 379 279 13 51 5 102 -26 149 -12 19 -37 62 -55 95 -17 32 -56 102 -85 154
-30 52 -67 119 -82 148 l-27 52 -944 0 -944 0 4 -67z m1190 -83 c25 -26 29
-36 26 -72 -3 -40 -1 -42 30 -50 37 -10 72 -58 72 -99 0 -39 -33 -74 -112
-120 l-72 -42 -23 29 c-12 16 -23 32 -23 36 0 4 -13 29 -28 55 -69 117 -110
200 -104 208 6 9 42 30 118 70 46 23 82 19 116 -15z"/>
<path d="M19115 35619 c-22 -12 -44 -25 -49 -30 -13 -11 33 -109 51 -109 16 0
95 48 105 64 14 21 8 55 -14 76 -27 25 -43 25 -93 -1z"/>
<path d="M19188 35471 c-27 -14 -48 -32 -48 -39 0 -12 4 -21 44 -85 l17 -28
47 27 c57 32 72 50 72 84 0 59 -63 79 -132 41z"/>
<path d="M20158 35768 c11 -18 39 -69 62 -113 24 -44 55 -100 69 -125 15 -25
33 -58 41 -73 36 -71 120 -126 192 -127 25 0 70 17 145 56 59 31 113 60 118
64 10 8 53 32 130 73 22 12 42 24 45 27 3 3 21 13 40 22 36 18 119 64 205 114
28 16 71 41 98 54 26 14 57 33 70 42 21 17 -9 18 -606 18 l-629 0 20 -32z"/>
<path d="M24450 35792 c0 -4 6 -16 14 -27 7 -11 26 -42 41 -70 46 -82 77 -117
123 -136 68 -29 121 -25 199 17 38 20 73 40 78 44 6 4 78 45 160 90 83 45 152
84 154 86 2 2 -170 4 -382 4 -213 0 -387 -3 -387 -8z"/>
<path d="M27700 35793 c0 -5 13 -30 29 -58 110 -196 151 -269 151 -272 0 -2
20 -37 45 -77 25 -41 45 -78 45 -82 0 -4 13 -28 29 -54 16 -26 46 -78 67 -116
20 -38 47 -87 59 -109 13 -22 73 -130 134 -240 61 -110 116 -207 121 -215 6
-8 13 -22 17 -30 4 -8 9 -17 12 -20 3 -3 18 -30 34 -60 15 -30 39 -75 54 -100
39 -68 122 -217 161 -290 19 -36 49 -90 67 -120 18 -30 46 -80 63 -110 16 -30
66 -120 111 -199 45 -78 81 -144 81 -146 0 -2 31 -56 68 -121 38 -66 88 -157
113 -204 24 -47 47 -86 52 -88 4 -2 7 -8 7 -12 0 -5 14 -33 31 -62 17 -29 45
-78 62 -108 16 -30 43 -77 59 -105 15 -27 40 -72 53 -100 14 -27 31 -59 38
-70 27 -43 55 -93 92 -160 55 -101 168 -304 208 -375 42 -73 160 -287 198
-359 11 -19 23 -39 29 -45 5 -5 10 -18 10 -28 0 -10 4 -18 9 -18 5 0 21 -24
36 -52 15 -29 34 -66 44 -83 10 -16 34 -61 55 -100 21 -38 41 -72 44 -75 4 -3
15 -21 24 -40 10 -19 34 -64 54 -100 20 -36 49 -87 64 -115 15 -27 37 -68 50
-90 44 -75 100 -178 100 -182 0 -3 8 -17 18 -31 11 -15 32 -52 49 -82 28 -52
120 -219 168 -305 12 -22 39 -68 59 -102 20 -34 36 -66 36 -72 0 -6 4 -11 9
-11 5 0 11 -8 14 -17 6 -17 53 -106 124 -233 17 -30 47 -86 68 -125 21 -38 41
-74 45 -80 5 -5 21 -35 38 -65 16 -30 52 -95 80 -145 27 -49 60 -110 73 -135
13 -25 26 -47 29 -50 16 -15 27 -58 19 -72 -10 -18 -1 -78 12 -78 12 0 22 84
17 139 -5 51 -36 118 -128 276 -29 50 -69 119 -88 155 -20 36 -46 82 -59 102
-13 21 -23 40 -23 42 0 3 -14 29 -31 58 -18 29 -42 71 -54 93 -79 140 -132
237 -158 285 -16 30 -40 72 -53 92 -13 21 -24 40 -24 44 0 4 -15 32 -34 63
-41 68 -63 107 -211 376 -21 39 -41 72 -45 75 -3 3 -21 34 -40 70 -18 36 -55
102 -82 148 -26 46 -48 88 -48 93 0 5 -4 9 -10 9 -5 0 -10 4 -10 9 0 5 -28 60
-63 123 -35 62 -76 136 -92 163 -15 28 -55 100 -90 160 -34 61 -73 130 -87
155 -14 25 -71 127 -127 226 -55 100 -101 186 -101 192 0 6 -4 12 -8 14 -7 3
-30 41 -100 168 -14 25 -42 74 -62 110 -20 36 -48 85 -62 110 -14 25 -86 153
-160 285 -74 132 -150 267 -168 300 -18 33 -62 111 -97 174 -34 62 -63 117
-63 121 0 5 -4 10 -8 12 -8 3 -42 61 -104 177 -16 31 -40 74 -51 96 -12 22
-24 42 -27 45 -3 3 -12 19 -21 35 -10 17 -47 83 -83 148 -36 65 -66 123 -66
128 0 5 -4 9 -10 9 -5 0 -10 4 -10 10 0 5 -13 31 -28 57 -16 26 -48 84 -72
128 -55 101 -69 127 -110 195 -18 30 -55 98 -83 150 -28 52 -53 97 -56 100 -3
3 -11 14 -17 25 -78 143 -102 187 -126 228 -15 26 -28 50 -28 52 0 2 -13 26
-29 53 -16 27 -44 76 -62 108 -18 33 -48 86 -66 119 -19 33 -41 76 -51 95 -9
19 -19 37 -22 40 -3 3 -26 40 -50 83 -29 52 -50 77 -62 77 -10 0 -18 -3 -18
-7z"/>
<path d="M42977 35773 c-8 -49 -54 -252 -97 -428 -58 -239 -140 -585 -200
-840 -12 -49 -37 -153 -55 -230 -19 -77 -46 -192 -60 -255 -27 -121 -111 -478
-145 -615 -10 -44 -29 -123 -41 -175 -12 -52 -44 -187 -71 -300 -27 -113 -56
-234 -64 -270 -16 -72 -15 -68 -78 -330 -78 -323 -97 -439 -103 -615 -7 -223
17 -355 96 -526 16 -35 41 -81 55 -102 14 -21 26 -41 26 -45 0 -27 256 -282
283 -282 3 0 26 -13 50 -30 25 -16 50 -30 56 -30 6 0 11 -4 11 -10 0 -5 5 -10
10 -10 6 0 29 -9 53 -19 123 -56 281 -106 492 -156 61 -15 247 -60 415 -101
168 -41 361 -87 430 -104 126 -30 466 -112 810 -196 184 -45 304 -74 495 -119
107 -25 252 -60 515 -124 91 -22 222 -54 293 -70 198 -48 357 -86 542 -131 94
-23 283 -68 420 -101 252 -60 402 -96 990 -239 176 -43 381 -93 455 -110 130
-31 429 -102 730 -175 80 -19 258 -61 395 -94 138 -33 342 -82 455 -110 113
-27 255 -62 315 -76 113 -27 349 -84 560 -135 119 -29 344 -83 665 -160 91
-21 239 -57 330 -79 274 -66 617 -149 750 -181 69 -16 202 -48 295 -70 94 -23
274 -65 400 -95 127 -30 331 -79 455 -109 271 -66 503 -121 705 -169 333 -79
1200 -289 1620 -392 165 -41 404 -99 530 -129 127 -31 244 -60 260 -65 35 -10
48 -13 335 -81 118 -28 368 -89 555 -134 187 -46 448 -109 580 -141 132 -32
359 -86 505 -122 146 -35 348 -84 450 -108 102 -25 199 -49 215 -54 17 -5 75
-19 130 -31 55 -12 134 -30 175 -40 154 -39 732 -180 940 -229 118 -28 229
-55 245 -60 17 -5 55 -14 85 -21 30 -6 66 -15 80 -20 14 -4 48 -12 75 -18 87
-20 251 -59 565 -135 168 -41 384 -94 480 -117 96 -23 339 -81 540 -130 201
-49 403 -98 450 -109 106 -26 521 -126 785 -191 376 -92 598 -145 810 -195 33
-8 188 -46 345 -84 324 -80 673 -164 878 -211 48 -12 103 -25 122 -31 48 -13
314 -75 430 -100 122 -26 306 -49 390 -49 110 0 294 36 400 79 195 78 368 220
487 398 138 206 188 365 388 1223 20 85 61 256 91 380 30 124 68 281 85 350
16 69 41 170 54 225 13 55 35 147 49 205 14 58 56 233 94 390 38 157 93 384
121 505 29 121 59 245 67 275 8 30 30 120 48 200 19 80 61 255 94 390 33 135
79 324 102 420 22 96 55 231 72 300 16 68 38 161 48 205 10 44 29 125 43 180
14 55 39 159 56 230 40 175 79 336 145 605 30 124 75 313 101 420 25 107 71
296 101 420 51 209 83 340 164 675 17 72 38 162 46 200 8 39 19 84 24 100 5
17 18 68 29 115 52 221 122 508 130 535 11 38 20 77 71 295 23 96 68 285 100
420 80 330 134 556 175 730 19 80 57 237 84 350 28 113 51 208 51 213 0 4
-186 7 -413 7 l-412 0 -54 -222 c-29 -123 -61 -254 -71 -293 -10 -38 -32 -131
-50 -205 -17 -74 -63 -263 -102 -420 -67 -277 -118 -486 -178 -737 -17 -68
-43 -178 -60 -245 -16 -68 -43 -179 -59 -248 -16 -69 -57 -235 -90 -370 -55
-226 -109 -448 -162 -667 -11 -48 -50 -207 -85 -353 -91 -369 -148 -607 -194
-800 -22 -91 -44 -181 -50 -200 -5 -19 -21 -87 -36 -150 -14 -63 -32 -137 -39
-165 -14 -50 -128 -521 -264 -1085 -17 -69 -64 -264 -106 -435 -106 -431 -201
-821 -230 -940 -119 -493 -445 -1821 -465 -1895 -5 -19 -21 -81 -35 -138 -51
-206 -111 -360 -177 -456 -37 -54 -101 -108 -158 -135 -48 -22 -68 -26 -160
-26 -58 0 -132 6 -165 13 -117 26 -412 94 -575 133 -91 22 -201 49 -245 59
-141 33 -286 68 -455 109 -91 22 -226 54 -300 71 -74 17 -227 54 -340 81 -113
28 -252 61 -310 75 -58 14 -150 36 -205 49 -55 13 -197 47 -315 75 -118 28
-307 74 -420 101 -113 27 -261 63 -330 79 -69 16 -237 57 -375 90 -137 34
-297 72 -355 86 -58 14 -150 36 -205 49 -98 23 -203 49 -415 99 -272 65 -933
223 -1275 306 -88 21 -209 51 -270 65 -282 67 -415 99 -605 145 -113 27 -311
74 -440 105 -129 31 -289 69 -355 85 -572 138 -650 157 -875 210 -91 21 -248
59 -350 84 -102 25 -246 59 -320 76 -74 17 -236 56 -360 86 -124 30 -263 64
-310 75 -47 11 -110 26 -140 34 -30 8 -86 21 -125 30 -38 8 -86 20 -105 25
-19 5 -64 16 -100 24 -36 8 -130 31 -210 50 -464 112 -577 139 -690 166 -69
16 -246 59 -395 95 -300 73 -439 106 -565 136 -120 28 -180 42 -390 93 -324
79 -469 114 -710 171 -233 56 -300 72 -745 180 -126 31 -268 65 -315 76 -47
11 -139 33 -205 49 -66 16 -185 45 -265 64 -80 19 -228 55 -330 79 -180 44
-385 93 -735 177 -259 62 -365 88 -545 131 -91 22 -201 49 -245 59 -158 38
-374 90 -600 145 -126 30 -286 69 -355 85 -69 17 -237 57 -375 91 -137 33
-306 74 -375 90 -69 16 -179 43 -245 59 -66 16 -169 41 -230 55 -205 49 -389
93 -595 143 -113 28 -290 71 -395 96 -104 25 -275 66 -380 91 -104 26 -273 66
-375 91 -102 24 -286 69 -410 99 -124 30 -281 68 -350 84 -150 36 -427 103
-565 136 -55 13 -203 49 -330 80 -210 50 -405 98 -1070 260 -246 60 -331 89
-410 139 -71 44 -103 74 -133 126 -23 39 -27 59 -30 145 l-4 100 151 610 c83
336 158 637 167 670 26 98 28 109 164 660 72 292 165 665 206 830 41 165 79
318 83 340 5 22 16 69 25 105 25 99 56 219 72 280 41 161 124 503 124 516 0
12 -63 14 -429 14 l-429 0 -5 -27z"/>
<path d="M13810 35745 c0 -9 6 -12 15 -9 8 4 15 10 15 15 0 5 -7 9 -15 9 -8 0
-15 -7 -15 -15z"/>
<path d="M13677 35633 c6 -15 29 -18 37 -4 3 5 -5 11 -18 13 -17 4 -23 1 -19
-9z"/>
<path d="M17680 35636 c-30 -11 -110 -54 -255 -136 -22 -12 -94 -53 -160 -90
-66 -37 -136 -76 -155 -87 -132 -74 -386 -216 -443 -246 -220 -119 -257 -155
-257 -255 0 -43 8 -69 42 -135 23 -45 44 -84 48 -87 7 -6 100 -168 100 -174 0
-3 23 -44 50 -92 28 -48 50 -90 50 -95 0 -4 3 -9 8 -11 4 -1 15 -19 26 -38 42
-80 91 -169 131 -240 23 -41 77 -137 120 -213 42 -76 89 -152 103 -169 32 -38
95 -67 145 -68 33 0 112 30 127 49 3 3 34 21 70 38 65 33 153 81 265 146 33
20 94 53 135 75 111 60 233 130 247 142 7 5 15 10 17 10 3 0 43 21 88 46 46
26 128 71 183 101 55 30 115 66 133 80 45 34 72 91 72 155 0 47 -8 68 -77 193
-42 77 -81 142 -85 143 -4 2 -8 8 -8 13 0 14 -124 232 -291 512 -16 27 -29 51
-29 55 0 15 -116 227 -162 296 -18 27 -49 58 -68 69 -44 24 -125 31 -170 13z
m-53 -1015 c33 -183 33 -211 0 -211 -23 0 -289 248 -284 264 9 27 48 0 186
-131 36 -34 69 -58 73 -55 4 4 -5 73 -20 153 -16 80 -26 151 -24 158 2 7 11
11 20 9 11 -2 23 -47 49 -187z"/>
<path d="M13475 35579 l-30 -19 27 0 c14 0 29 6 32 13 5 10 7 10 12 0 3 -7 13
-13 22 -13 13 0 12 4 -6 20 -25 23 -19 23 -57 -1z"/>
<path d="M23550 34720 c-8 -5 -10 -10 -5 -10 6 0 17 5 25 10 8 5 11 10 5 10
-5 0 -17 -5 -25 -10z"/>
<path d="M23449 34659 c-19 -16 -20 -18 -4 -10 34 17 51 31 39 31 -7 0 -22 -9
-35 -21z"/>
<path d="M23390 34630 c0 -5 7 -7 15 -4 8 4 15 8 15 10 0 2 -7 4 -15 4 -8 0
-15 -4 -15 -10z"/>
<path d="M23230 34539 c-40 -22 -47 -29 -25 -24 16 4 32 10 35 14 3 5 19 15
35 24 17 9 26 16 20 16 -5 0 -35 -14 -65 -30z"/>
<path d="M23110 34475 c-25 -14 -53 -28 -62 -32 -10 -3 -18 -9 -18 -14 0 -9
50 10 60 22 3 3 23 16 45 27 22 12 35 21 30 22 -6 0 -30 -11 -55 -25z"/>
<path d="M22995 34410 c-3 -5 -2 -10 4 -10 5 0 13 5 16 10 3 6 2 10 -4 10 -5
0 -13 -4 -16 -10z"/>
<path d="M22955 34390 c-3 -5 -2 -10 4 -10 5 0 13 5 16 10 3 6 2 10 -4 10 -5
0 -13 -4 -16 -10z"/>
<path d="M22866 34339 c-33 -16 -67 -36 -76 -44 -9 -8 -24 -15 -32 -15 -9 0
-18 -3 -20 -7 -1 -5 -19 -16 -38 -25 -43 -21 -133 -71 -140 -78 -3 -3 -27 -16
-55 -30 -70 -35 -128 -71 -123 -76 6 -5 197 92 218 111 9 8 22 15 28 15 6 0
17 6 24 13 7 6 33 23 58 36 81 43 220 123 220 127 0 5 2 6 -64 -27z"/>
<path d="M22330 34041 c-19 -11 -92 -51 -162 -90 -70 -39 -132 -71 -137 -71
-5 0 -11 -3 -13 -7 -1 -5 -34 -24 -73 -43 -38 -19 -72 -38 -75 -41 -5 -7 -24
-17 -162 -92 -37 -20 -88 -50 -114 -67 -27 -16 -54 -30 -61 -30 -7 0 -13 -3
-13 -8 0 -4 -30 -23 -67 -41 -38 -19 -70 -38 -73 -41 -3 -4 -18 -14 -35 -23
-16 -9 -25 -16 -20 -17 6 0 37 14 70 32 33 17 73 38 90 46 16 9 45 26 63 39
19 12 57 34 86 48 28 14 65 34 81 44 31 18 83 47 235 131 47 26 103 57 125 70
22 13 58 33 80 45 22 12 71 39 108 61 37 21 77 43 88 49 10 5 19 13 19 17 0
10 1 11 -40 -11z"/>
<path d="M21250 33436 c-19 -13 -46 -27 -60 -31 -14 -4 -32 -12 -40 -19 -19
-14 -45 -29 -150 -84 -145 -77 -202 -109 -275 -150 -38 -22 -110 -61 -160 -87
-49 -26 -103 -55 -120 -65 -39 -25 -83 -49 -170 -95 -38 -20 -77 -42 -85 -49
-8 -7 -67 -40 -131 -73 -63 -34 -140 -76 -170 -95 -30 -19 -70 -41 -89 -48
-19 -8 -37 -17 -40 -20 -3 -3 -38 -23 -78 -44 -40 -20 -94 -50 -119 -66 -26
-17 -51 -30 -56 -30 -5 0 -21 -9 -37 -20 -15 -11 -30 -17 -34 -13 -3 3 -6 2
-6 -4 0 -5 -19 -19 -42 -32 -49 -25 -52 -26 -135 -75 -82 -48 -193 -109 -268
-147 -33 -17 -82 -43 -110 -60 -27 -16 -75 -41 -105 -56 -30 -15 -57 -30 -60
-34 -6 -7 -99 -60 -165 -94 -27 -14 -77 -42 -110 -61 -33 -19 -68 -38 -77 -41
-10 -3 -18 -14 -18 -24 0 -17 5 -16 53 11 28 16 70 38 92 49 22 11 47 25 55
30 30 19 137 79 215 121 44 23 85 46 90 50 12 9 86 50 200 110 44 23 125 68
180 100 55 31 197 110 315 175 118 65 244 135 280 155 36 21 124 70 195 110
228 127 239 133 277 157 21 13 40 23 43 23 3 0 68 36 146 80 77 44 144 80 149
80 5 0 15 6 22 13 7 6 38 25 68 41 30 16 121 67 202 113 80 45 151 83 157 83
6 0 11 4 11 8 0 4 15 15 33 23 64 31 152 81 167 95 22 21 -1 16 -40 -10z"/>
<path d="M5930 32886 c0 -16 44 -80 48 -68 2 6 -2 17 -8 24 -6 7 -17 22 -25
33 -8 11 -15 16 -15 11z"/>
<path d="M18186 31745 c-52 -36 -40 -50 18 -20 15 8 30 15 32 15 2 0 4 -21 4
-46 0 -39 -6 -53 -45 -101 -70 -86 -53 -81 41 12 55 53 108 95 143 112 44 22
51 28 34 31 -12 2 -31 -2 -42 -7 -25 -14 -51 -4 -51 20 0 16 -7 19 -43 19 -32
0 -54 -8 -91 -35z"/>
<path d="M18845 31340 c-62 -49 -118 -104 -154 -151 -31 -40 -32 -42 -6 -19
15 14 37 34 49 45 12 11 55 50 96 88 75 68 85 92 15 37z"/>
<path d="M18980 31284 c0 -52 -21 -115 -47 -144 -29 -32 -30 -49 -1 -24 56 48
108 112 114 137 7 33 -18 67 -48 67 -14 0 -18 -8 -18 -36z"/>
<path d="M18005 31200 c3 -5 8 -10 11 -10 2 0 4 5 4 10 0 6 -5 10 -11 10 -5 0
-7 -4 -4 -10z"/>
<path d="M18931 30895 c-18 -41 -31 -79 -29 -85 2 -6 18 25 37 70 18 45 31 83
29 85 -2 2 -18 -29 -37 -70z"/>
<path d="M18830 30869 c-6 -11 -10 -27 -8 -36 2 -10 9 -2 20 21 18 37 7 52
-12 15z"/>
<path d="M19533 30816 c-21 -19 -33 -35 -28 -35 14 0 78 59 72 66 -3 2 -23
-11 -44 -31z"/>
<path d="M19736 30818 c-18 -84 -26 -131 -23 -134 2 -2 14 14 28 36 13 22 27
40 31 40 4 0 14 11 23 24 21 32 10 56 -26 56 -22 0 -30 -5 -33 -22z"/>
<path d="M18801 30795 c0 -12 -6 -26 -13 -33 -6 -6 -9 -14 -6 -18 10 -9 30 35
25 54 -4 13 -5 13 -6 -3z"/>
<path d="M19470 30760 c-8 -5 -12 -11 -10 -14 3 -2 14 2 24 10 22 15 10 19
-14 4z"/>
<path d="M18756 30701 c-18 -35 -19 -41 -7 -41 11 0 36 59 28 66 -3 3 -13 -8
-21 -25z"/>
<path d="M18951 30674 c0 -11 3 -14 6 -6 3 7 2 16 -1 19 -3 4 -6 -2 -5 -13z"/>
<path d="M19680 30669 c0 -5 5 -7 10 -4 6 3 10 8 10 11 0 2 -4 4 -10 4 -5 0
-10 -5 -10 -11z"/>
<path d="M19715 30545 c-21 -71 -14 -81 12 -18 26 62 27 67 14 71 -5 2 -17
-22 -26 -53z"/>
<path d="M20425 30376 c0 -59 1 -62 14 -43 8 12 25 34 39 49 21 23 23 30 12
43 -7 8 -24 15 -39 15 -25 0 -26 -2 -26 -64z"/>
<path d="M20212 30389 c-18 -18 -30 -34 -27 -37 4 -5 65 56 65 65 0 7 -8 1
-38 -28z"/>
<path d="M20150 30325 c-8 -9 -8 -15 -2 -15 12 0 26 19 19 26 -2 2 -10 -2 -17
-11z"/>
<path d="M20397 30283 c-4 -3 -7 -11 -7 -17 0 -6 5 -5 12 2 6 6 9 14 7 17 -3
3 -9 2 -12 -2z"/>
<path d="M20441 30164 c0 -11 3 -14 6 -6 3 7 2 16 -1 19 -3 4 -6 -2 -5 -13z"/>
<path d="M20426 30123 c-6 -14 -5 -15 5 -6 7 7 10 15 7 18 -3 3 -9 -2 -12 -12z"/>
<path d="M21135 29978 c-28 -125 -31 -153 -15 -143 6 3 10 13 10 21 0 8 13 29
30 47 30 32 35 51 24 81 -9 24 -43 20 -49 -6z"/>
<path d="M20901 29915 c-43 -49 -39 -58 6 -13 20 21 34 40 31 43 -3 3 -19 -10
-37 -30z"/>
<path d="M20230 29901 c-12 -24 -13 -31 -1 -31 5 0 11 11 13 25 6 30 2 32 -12
6z"/>
<path d="M21085 29800 c-3 -5 -1 -10 4 -10 6 0 11 5 11 10 0 6 -2 10 -4 10 -3
0 -8 -4 -11 -10z"/>
<path d="M21819 29563 c-2 -18 3 -89 7 -95 3 -4 18 5 34 21 47 44 37 81 -21
81 -10 0 -19 -3 -20 -7z"/>
<path d="M21031 29474 c0 -11 3 -14 6 -6 3 7 2 16 -1 19 -3 4 -6 -2 -5 -13z"/>
<path d="M21590 29480 c-9 -6 -10 -10 -3 -10 6 0 15 5 18 10 8 12 4 12 -15 0z"/>
<path d="M21997 29454 c-4 -4 -7 -35 -7 -70 0 -34 -9 -91 -20 -126 -11 -34
-20 -65 -20 -68 0 -3 14 15 30 40 l31 45 -6 -58 c-3 -33 -10 -68 -16 -79 -6
-11 -8 -22 -5 -26 7 -7 6 -9 41 63 37 79 55 207 34 250 -14 29 -47 44 -62 29z"/>
<path d="M21692 29120 c-6 -11 -12 -27 -12 -35 0 -9 -12 -41 -26 -71 -14 -31
-24 -58 -20 -61 9 -9 61 112 57 135 -1 6 2 12 7 12 5 0 12 9 15 20 7 26 -5 26
-21 0z"/>
<path d="M21957 29071 c-24 -48 -21 -63 4 -22 11 18 18 38 16 44 -2 6 -11 -4
-20 -22z"/>
<path d="M57178 27073 c7 -3 16 -2 19 1 4 3 -2 6 -13 5 -11 0 -14 -3 -6 -6z"/>
<path d="M23110 24520 c-9 -6 -10 -10 -3 -10 6 0 15 5 18 10 8 12 4 12 -15 0z"/>
<path d="M22996 24455 c-11 -8 -15 -15 -9 -15 6 0 16 7 23 15 16 19 11 19 -14
0z"/>
<path d="M22745 24319 c-40 -25 -15 -25 27 1 18 11 26 20 18 19 -8 0 -28 -9
-45 -20z"/>
<path d="M22698 24283 c7 -3 16 -2 19 1 4 3 -2 6 -13 5 -11 0 -14 -3 -6 -6z"/>
<path d="M22630 24255 c-14 -16 -10 -18 14 -9 9 3 16 10 16 15 0 14 -16 11
-30 -6z"/>
<path d="M22570 24220 c-14 -11 -33 -20 -42 -20 -10 0 -18 -3 -18 -7 0 -5 -10
-13 -23 -19 -26 -13 -91 -48 -252 -139 -66 -37 -129 -71 -140 -76 -11 -5 -42
-23 -70 -39 -27 -17 -60 -35 -72 -40 -12 -5 -39 -20 -60 -33 -21 -13 -63 -37
-93 -54 -30 -16 -137 -76 -238 -131 -101 -56 -185 -102 -188 -102 -2 0 -21
-11 -42 -23 -35 -23 -78 -46 -239 -133 -38 -20 -73 -41 -80 -46 -13 -11 -156
-88 -233 -126 -30 -15 -57 -30 -60 -33 -3 -3 -68 -39 -145 -81 -77 -42 -216
-118 -310 -169 -324 -177 -318 -174 -409 -174 -66 0 -90 4 -126 24 -25 13 -48
28 -52 35 -6 8 -8 8 -8 -1 0 -18 90 -69 149 -83 59 -14 173 -8 179 9 2 6 7 11
12 11 5 0 57 28 117 61 59 34 142 81 183 104 83 46 121 68 195 112 28 16 86
49 130 73 44 24 82 46 85 49 3 3 21 14 40 25 163 86 275 150 278 158 2 4 9 8
14 8 6 0 63 30 127 66 64 37 139 79 167 95 29 15 92 50 142 78 49 28 95 51
101 51 6 0 11 4 11 9 0 5 8 11 18 14 17 6 64 32 132 73 19 12 76 43 125 69 50
26 104 57 120 69 17 12 62 38 100 58 39 20 90 48 115 62 25 13 72 39 105 56
33 18 67 39 76 46 8 8 19 14 24 14 10 0 195 110 195 116 0 9 -16 3 -40 -16z"/>
<path d="M19758 22718 c5 -5 16 -8 23 -6 8 3 3 7 -10 11 -17 4 -21 3 -13 -5z"/>
<path d="M19680 22710 c0 -5 6 -10 14 -10 8 0 18 5 21 10 3 6 -3 10 -14 10
-12 0 -21 -4 -21 -10z"/>
<path d="M19748 22683 c6 -2 18 -2 25 0 6 3 1 5 -13 5 -14 0 -19 -2 -12 -5z"/>
<path d="M19360 22100 c0 -23 10 -26 28 -8 18 18 15 28 -8 28 -13 0 -20 -7
-20 -20z"/>
<path d="M19520 22089 c0 -5 5 -7 10 -4 6 3 10 8 10 11 0 2 -4 4 -10 4 -5 0
-10 -5 -10 -11z"/>
<path d="M19360 21999 c0 -5 5 -7 10 -4 6 3 10 8 10 11 0 2 -4 4 -10 4 -5 0
-10 -5 -10 -11z"/>
</g>
</svg>
